<?xml version="1.0" encoding="utf-8"?>
<!-- Generator: Adobe Illustrator 21.1.0, SVG Export Plug-In . SVG Version: 6.00 Build 0)  -->
<svg version="1.1" id="Layer_1" xmlns="http://www.w3.org/2000/svg" xmlns:xlink="http://www.w3.org/1999/xlink" x="0px" y="0px"
	 viewBox="0 0 256 256" style="enable-background:new 0 0 256 256;" xml:space="preserve">
<style type="text/css">
	.st0{fill-rule:evenodd;clip-rule:evenodd;fill:#77933C;}
	.st1{fill:none;stroke:#000000;stroke-width:0.6552;stroke-miterlimit:8;}
</style>
<g>
	<path class="st0" d="M24.2,81.3H30v92.6h-5.8V81.3L24.2,81.3z M35.7,81.3h11.6v92.6H35.7V81.3L35.7,81.3z M53.1,81.3h86.8V35
		l92.6,92.6l-92.6,92.6v-46.3H53.1V81.3L53.1,81.3z"/>
	<path class="st1" d="M24.2,81.3H30v92.6h-5.8V81.3L24.2,81.3z M35.7,81.3h11.6v92.6H35.7V81.3L35.7,81.3z M53.1,81.3h86.8V35
		l92.6,92.6l-92.6,92.6v-46.3H53.1V81.3L53.1,81.3z"/>
</g>
</svg>
