<?xml version="1.0" encoding="utf-8"?>
<!-- Generator: Adobe Illustrator 21.1.0, SVG Export Plug-In . SVG Version: 6.00 Build 0)  -->
<svg version="1.1" id="Layer_1" xmlns="http://www.w3.org/2000/svg" xmlns:xlink="http://www.w3.org/1999/xlink" x="0px" y="0px"
	 viewBox="0 0 256 256" style="enable-background:new 0 0 256 256;" xml:space="preserve">
<style type="text/css">
	.st0{fill-rule:evenodd;clip-rule:evenodd;fill:#FF0000;}
	.st1{fill:none;stroke:#000000;stroke-width:0.6552;stroke-miterlimit:8;}
	.st2{clip-path:url(#SVGID_2_);fill-rule:evenodd;clip-rule:evenodd;fill:#FF0000;}
	.st3{clip-path:url(#SVGID_2_);fill:none;stroke:#000000;stroke-width:0.6552;stroke-miterlimit:8;}
</style>
<g>
	<polygon class="st0" points="127.5,98.7 183.3,98.7 183.3,69.1 239.1,128.2 183.3,187.3 183.3,157.8 127.5,157.8 155.4,128.2 
		127.5,98.7 	"/>
	<polygon class="st1" points="127.5,98.7 183.3,98.7 183.3,69.1 239.1,128.2 183.3,187.3 183.3,157.8 127.5,157.8 155.4,128.2 
		127.5,98.7 	"/>
	<g>
		<defs>
			<polygon id="SVGID_1_" points="6,197.2 249,197.2 249,59.3 6,59.3 6,197.2 			"/>
		</defs>
		<clipPath id="SVGID_2_">
			<use xlink:href="#SVGID_1_"  style="overflow:visible;"/>
		</clipPath>
		<polygon class="st2" points="15.9,95.4 101.2,95.4 134.1,128.2 101.2,161.1 15.9,161.1 48.7,128.2 15.9,95.4 		"/>
		<polygon class="st3" points="15.9,95.4 101.2,95.4 134.1,128.2 101.2,161.1 15.9,161.1 48.7,128.2 15.9,95.4 		"/>
	</g>
</g>
</svg>
