<?xml version="1.0" encoding="UTF-8" standalone="no"?>
<!-- Created with Inkscape (http://www.inkscape.org/) -->

<svg
   xmlns:dc="http://purl.org/dc/elements/1.1/"
   xmlns:cc="http://creativecommons.org/ns#"
   xmlns:rdf="http://www.w3.org/1999/02/22-rdf-syntax-ns#"
   xmlns:svg="http://www.w3.org/2000/svg"
   xmlns="http://www.w3.org/2000/svg"
   xmlns:xlink="http://www.w3.org/1999/xlink"
   xmlns:sodipodi="http://sodipodi.sourceforge.net/DTD/sodipodi-0.dtd"
   xmlns:inkscape="http://www.inkscape.org/namespaces/inkscape"
   width="270.78558mm"
   height="181.55559mm"
   viewBox="0 0 270.78558 181.55559"
   version="1.1"
   id="svg420450"
   inkscape:version="0.92.3 (2405546, 2018-03-11)"
   sodipodi:docname="dab_title.svg">
  <defs
     id="defs420444">
    <linearGradient
       gradientTransform="matrix(5.1438652,0,0,5.1438652,-469.66987,-1134.2369)"
       inkscape:collect="always"
       xlink:href="#linearGradient419386"
       id="linearGradient419388-5-3-2-5"
       x1="73.381638"
       y1="253.62039"
       x2="111.52764"
       y2="268.32022"
       gradientUnits="userSpaceOnUse" />
    <linearGradient
       inkscape:collect="always"
       id="linearGradient419386">
      <stop
         style="stop-color:#133156;stop-opacity:1"
         offset="0"
         id="stop419382" />
      <stop
         style="stop-color:#42b7d6;stop-opacity:1"
         offset="1"
         id="stop419384" />
    </linearGradient>
  </defs>
  <sodipodi:namedview
     id="base"
     pagecolor="#ffffff"
     bordercolor="#666666"
     borderopacity="1.0"
     inkscape:pageopacity="0.0"
     inkscape:pageshadow="2"
     inkscape:zoom="1.4"
     inkscape:cx="434.48323"
     inkscape:cy="187.26289"
     inkscape:document-units="mm"
     inkscape:current-layer="layer1"
     showgrid="false"
     inkscape:window-width="2110"
     inkscape:window-height="2097"
     inkscape:window-x="67"
     inkscape:window-y="33"
     inkscape:window-maximized="0" />
  <metadata
     id="metadata420447">
    <rdf:RDF>
      <cc:Work
         rdf:about="">
        <dc:format>image/svg+xml</dc:format>
        <dc:type
           rdf:resource="http://purl.org/dc/dcmitype/StillImage" />
        <dc:title />
      </cc:Work>
    </rdf:RDF>
  </metadata>
  <g
     inkscape:label="Layer 1"
     inkscape:groupmode="layer"
     id="layer1"
     transform="translate(129.34517,-138.37552)">
    <path
       style="font-style:normal;font-variant:normal;font-weight:bold;font-stretch:normal;font-size:medium;line-height:125%;font-family:Comfortaa;-inkscape-font-specification:'Comfortaa Bold';letter-spacing:0px;word-spacing:0px;fill:url(#linearGradient419388-5-3-2-5);fill-opacity:1;stroke:none;stroke-width:2.54935074px;stroke-linecap:butt;stroke-linejoin:miter;stroke-opacity:1"
       d="m -2.8921286,146.3163 c -0.170281,-0.005 -0.340513,-0.005 -0.51029,0.005 -4.6210977,0.25769 -6.5780597,6.01024 -3.0728297,9.03251 l 10.0771407,8.97138 -10.1170157,8.65228 c -5.5993467,4.41895 1.443327,12.6583 6.68000167,7.81503 L 14.77417,168.32566 c 2.373825,-2.02608 2.411453,-5.68207 0.07985,-7.75647 L 0.36697037,147.66908 c -0.893168,-0.82015 -2.04741897,-1.29837 -3.25889997,-1.35033 z m -38.9284724,12.70342 c -2.848821,-0.0259 -5.17748,2.2654 -5.194079,5.11427 l -0.220659,38.25609 c -0.0053,0.40948 0.03605,0.81825 0.130229,1.2174 v 2.27541 c -2.37937,-2.92328 -5.269094,-5.19989 -8.668279,-6.83141 -3.399106,-1.63159 -7.069777,-2.44826 -11.012748,-2.44826 -4.894752,0 -9.348966,1.2236 -13.359974,3.67095 -3.94297,2.44745 -7.069251,5.84852 -9.380629,10.19946 -2.243468,4.28288 -3.365252,9.07526 -3.365252,14.37793 0,5.30267 1.223524,10.12815 3.670925,14.47911 2.447351,4.28283 5.812805,7.68133 10.095731,10.19672 4.350863,2.4473 9.14332,3.67082 14.378003,3.67082 5.234685,0 9.961071,-1.22352 14.176009,-3.67082 4.282879,-2.51539 7.648355,-5.91389 10.095683,-10.19672 2.515362,-4.35096 3.77193,-9.17644 3.77193,-14.47911 v -38.56448 c 0,-0.43467 -0.04632,-0.83825 -0.119398,-1.22541 l 0.07708,-15.7044 34.829367,0.19143 c 6.964843,0.16978 7.057137,-10.33447 0.09068,-10.28712 z m 97.597166,14.13049 c -1.495562,0 -2.752165,0.4758 -3.771829,1.42751 -0.951803,0.95178 -1.427538,2.20838 -1.427538,3.77186 v 46.50198 c 0,5.30267 1.223633,10.12815 3.670928,14.47911 2.515362,4.28283 5.88079,7.68133 10.095781,10.19672 4.282879,2.4473 9.039671,3.67082 14.274245,3.67082 5.234764,0 9.994148,-1.22352 14.277026,-3.67082 4.350939,-2.51539 7.749382,-5.91389 10.196842,-10.19672 2.4474,-4.35096 3.67092,-9.17644 3.67092,-14.47911 0,-5.30267 -1.15491,-10.09505 -3.46631,-14.37793 -2.24344,-4.35094 -5.369675,-7.75201 -9.380654,-10.19946 -3.943019,-2.44735 -8.361489,-3.67095 -13.256294,-3.67095 -3.942998,0 -7.616264,0.81667 -11.015398,2.44826 -3.399107,1.63152 -6.286264,3.90813 -8.665598,6.83141 v -27.53331 c 0,-1.56348 -0.475833,-2.82008 -1.427438,-3.77186 -0.951879,-0.95186 -2.211046,-1.42751 -3.774683,-1.42751 z M 6.9540917,196.60322 c -5.2346347,0 -10.0271428,1.25929 -14.3780279,3.77466 -4.2829318,2.44727 -7.6483548,5.8458 -10.0956828,10.19671 -2.447429,4.2829 -3.670926,9.07534 -3.670926,14.37793 0,5.30269 1.121762,10.13089 3.365205,14.48171 2.311401,4.28297 5.437681,7.64571 9.3806541,10.09316 4.0109771,2.4473 8.46519161,3.67082 13.3599686,3.67082 3.9429732,0 7.6136263,-0.81384 11.0127503,-2.44538 3.399189,-1.6317 6.288888,-3.90836 8.668303,-6.83157 v 3.77194 c 0,1.49557 0.475804,2.75216 1.427409,3.77193 1.019765,0.95171 2.276385,1.42743 3.771937,1.42743 1.495615,0 2.719213,-0.4758 3.670918,-1.42743 1.019772,-1.01977 1.53114,-2.27636 1.53114,-3.77193 v -22.74068 c 0,-5.30259 -1.25922,-10.09503 -3.774555,-14.37793 -2.447429,-4.35091 -5.812852,-7.74944 -10.095731,-10.19671 -4.214938,-2.51537 -8.938705,-3.77466 -14.1733623,-3.77466 z m -71.7013467,9.17869 c 3.399107,0 6.459293,0.84966 9.178608,2.54916 2.787307,1.63152 4.962237,3.90829 6.52582,6.83157 1.563576,2.85519 2.344498,6.08585 2.344498,9.68892 0,3.60306 -0.780922,6.86685 -2.344498,9.79011 -1.563583,2.92325 -3.738513,5.23279 -6.52582,6.93239 -2.719315,1.6317 -5.779501,2.44816 -9.178608,2.44816 -3.399182,0 -6.492414,-0.81646 -9.279695,-2.44816 -2.719321,-1.6996 -4.894173,-4.00914 -6.525765,-6.93239 -1.563631,-2.92326 -2.344528,-6.18705 -2.344528,-9.79011 0,-3.60307 0.780897,-6.83373 2.344528,-9.68892 1.631592,-2.92328 3.806444,-5.20005 6.525765,-6.83157 2.787281,-1.6995 5.880513,-2.54916 9.279695,-2.54916 z m 71.7013467,0 c 3.3991263,0 6.4593603,0.84966 9.1786643,2.54916 2.787254,1.63152 4.962181,3.90829 6.52576,6.83157 1.563629,2.92323 2.344532,6.18689 2.344532,9.78988 0,3.60324 -0.780903,6.86685 -2.344532,9.79013 -1.563579,2.85519 -3.738506,5.13181 -6.52576,6.83141 -2.719304,1.6317 -5.779538,2.44816 -9.1786643,2.44816 -3.3991595,0 -6.49236361,-0.81646 -9.2796703,-2.44816 -2.7192954,-1.6996 -4.8941976,-3.97622 -6.525795,-6.83141 -1.5636034,-2.92328 -2.3471974,-6.18689 -2.3471974,-9.79013 0,-3.60299 0.783594,-6.86665 2.3471974,-9.78988 1.6315974,-2.92328 3.8064996,-5.20005 6.525795,-6.83157 2.78730669,-1.6995 5.8805108,-2.54916 9.2796703,-2.54916 z m 71.6640603,0 c 3.399188,0 6.459421,0.84966 9.178742,2.54916 2.787309,1.63152 4.962232,3.90829 6.525787,6.83157 1.631646,2.85519 2.448182,6.08585 2.448182,9.68892 0,3.60306 -0.816536,6.86685 -2.448182,9.79011 -1.563555,2.92325 -3.738478,5.23279 -6.525787,6.93239 -2.719321,1.6317 -5.779554,2.44816 -9.178742,2.44816 -3.399106,0 -6.492308,-0.81646 -9.279516,-2.44816 -2.719369,-1.6996 -4.858583,-4.00914 -6.422158,-6.93239 -1.563629,-2.92326 -2.347251,-6.18705 -2.347251,-9.79011 0,-3.60307 0.783622,-6.83373 2.347251,-9.68892 1.563575,-2.92328 3.702789,-5.20005 6.422158,-6.83157 2.787208,-1.6995 5.88041,-2.54916 9.279516,-2.54916 z"
       id="path419362-3-8-1-1"
       inkscape:connector-curvature="0"
       sodipodi:nodetypes="cccccccccccccccccsccsccsccsscccccscssccsccsccsccscssccsccsccscscssccssccsccsccsccssccsccsccsccssccsccsccsccs" />
    <g
       style="font-style:normal;font-variant:normal;font-weight:normal;font-stretch:normal;font-size:medium;line-height:125%;font-family:inconsolata;-inkscape-font-specification:inconsolata;letter-spacing:0px;word-spacing:0px;fill:#3591b2;fill-opacity:0.40358743;stroke:none;stroke-width:0.08717742px;stroke-linecap:butt;stroke-linejoin:miter;stroke-opacity:1"
       transform="matrix(6.7646491,0,0,6.7646491,338.34518,-261.62866)"
       id="g419776-6-9">
      <path
         inkscape:connector-curvature="0"
         d="m -67.00983,78.148838 q 0.0802,0 0.129023,0.04882 0.04882,0.04882 0.04882,0.129023 v 1.590116 q 0,0.271994 -0.129022,0.495168 -0.125536,0.219687 -0.345223,0.34871 -0.2162,0.125535 -0.484707,0.125535 -0.268506,0 -0.49168,-0.125535 -0.219687,-0.129023 -0.345223,-0.34871 -0.125535,-0.223174 -0.125535,-0.495168 0,-0.271993 0.115074,-0.49168 0.118561,-0.223175 0.320813,-0.34871 0.205738,-0.125536 0.456809,-0.125536 0.202252,0 0.376607,0.08369 0.174355,0.08369 0.296403,0.233635 V 78.32668 q 0,-0.0802 0.04882,-0.129023 0.05231,-0.04882 0.129022,-0.04882 z m -0.78111,2.423533 q 0.174355,0 0.313839,-0.08369 0.142971,-0.08718 0.223174,-0.237122 0.0802,-0.149946 0.0802,-0.334762 0,-0.184816 -0.0802,-0.331274 -0.0802,-0.149945 -0.223174,-0.233635 -0.139484,-0.08718 -0.313839,-0.08718 -0.174354,0 -0.317325,0.08718 -0.139484,0.08369 -0.223175,0.233635 -0.0802,0.146458 -0.0802,0.331274 0,0.184816 0.0802,0.334762 0.08369,0.149945 0.223175,0.237122 0.142971,0.08369 0.317325,0.08369 z"
         style="font-style:normal;font-variant:normal;font-weight:bold;font-stretch:normal;line-height:0px;font-family:Comfortaa;-inkscape-font-specification:'Comfortaa Bold';text-align:center;text-anchor:middle;fill:#3591b2;fill-opacity:0.40358743;stroke-width:0.08717742px"
         id="path419668-1-8" />
      <path
         inkscape:connector-curvature="0"
         d="m -64.491709,79.8889 q 0,0.06625 -0.04533,0.111587 -0.04533,0.04184 -0.115074,0.04184 h -1.325097 q 0.03836,0.244097 0.219687,0.394042 0.184816,0.149945 0.449836,0.149945 0.104613,0 0.2162,-0.03836 0.115074,-0.03836 0.188303,-0.09415 0.04882,-0.03836 0.115074,-0.03836 0.06625,0 0.104613,0.03487 0.06277,0.05231 0.06277,0.118562 0,0.06277 -0.05579,0.104612 -0.118561,0.09415 -0.296403,0.153433 -0.174355,0.05928 -0.334761,0.05928 -0.285942,0 -0.512604,-0.122048 -0.226661,-0.125535 -0.355684,-0.345223 -0.125535,-0.219687 -0.125535,-0.498655 0,-0.278967 0.118561,-0.498655 0.122049,-0.223174 0.334762,-0.345222 0.2162,-0.125536 0.488193,-0.125536 0.268507,0 0.463784,0.118562 0.195278,0.118561 0.299891,0.331274 0.104613,0.212713 0.104613,0.488194 z m -0.868288,-0.638139 q -0.254558,0 -0.414964,0.139484 -0.15692,0.139484 -0.198765,0.373119 h 1.161204 q -0.03138,-0.233635 -0.174355,-0.373119 -0.142971,-0.139484 -0.37312,-0.139484 z"
         style="font-style:normal;font-variant:normal;font-weight:bold;font-stretch:normal;line-height:0px;font-family:Comfortaa;-inkscape-font-specification:'Comfortaa Bold';text-align:center;text-anchor:middle;fill:#3591b2;fill-opacity:0.40358743;stroke-width:0.08717742px"
         id="path419670-5-4" />
      <path
         inkscape:connector-curvature="0"
         d="m -63.344128,80.886209 q -0.237122,0 -0.446348,-0.07323 -0.209226,-0.07323 -0.327787,-0.19179 -0.04533,-0.04533 -0.04533,-0.1081 0,-0.08369 0.06974,-0.135997 0.06625,-0.04882 0.122049,-0.04882 0.06974,0 0.132509,0.06277 0.06625,0.07323 0.198765,0.129022 0.13251,0.05231 0.282455,0.05231 0.198764,0 0.306864,-0.06625 0.111588,-0.06626 0.111588,-0.177842 0,-0.1081 -0.1081,-0.177842 -0.1081,-0.07323 -0.366146,-0.122049 -0.669522,-0.129022 -0.669522,-0.550961 0,-0.170868 0.101125,-0.289429 0.101126,-0.118561 0.26502,-0.177842 0.163893,-0.05928 0.34871,-0.05928 0.226661,0 0.404503,0.07323 0.181329,0.07323 0.285942,0.202252 0.04533,0.05579 0.04533,0.111587 0,0.05928 -0.05928,0.1081 -0.03836,0.0279 -0.09764,0.0279 -0.09067,0 -0.163894,-0.06625 -0.08718,-0.0802 -0.184816,-0.111587 -0.09764,-0.03487 -0.237123,-0.03487 -0.160406,0 -0.265019,0.05579 -0.101126,0.05231 -0.101126,0.149945 0,0.06974 0.03487,0.118561 0.03487,0.04533 0.13251,0.08718 0.09764,0.03836 0.282455,0.07672 0.380093,0.07672 0.537013,0.212713 0.160406,0.135996 0.160406,0.352196 0,0.160407 -0.08718,0.292917 -0.08718,0.129022 -0.258045,0.205738 -0.167381,0.07323 -0.404504,0.07323 z"
         style="font-style:normal;font-variant:normal;font-weight:bold;font-stretch:normal;line-height:0px;font-family:Comfortaa;-inkscape-font-specification:'Comfortaa Bold';text-align:center;text-anchor:middle;fill:#3591b2;fill-opacity:0.40358743;stroke-width:0.08717742px"
         id="path419672-9-8" />
      <path
         inkscape:connector-curvature="0"
         d="m -61.931962,80.872261 q -0.07672,0 -0.129023,-0.04882 -0.04882,-0.05231 -0.04882,-0.129023 V 79.14266 q 0,-0.0802 0.04882,-0.129023 0.05231,-0.04882 0.129023,-0.04882 0.0802,0 0.129022,0.04882 0.04882,0.04882 0.04882,0.129023 v 1.551758 q 0,0.07672 -0.04882,0.129023 -0.04882,0.04882 -0.129022,0.04882 z m 0,-2.217794 q -0.09415,0 -0.163894,-0.06625 -0.06626,-0.06974 -0.06626,-0.163893 0,-0.09415 0.06626,-0.160407 0.06974,-0.06974 0.163894,-0.06974 0.09415,0 0.160406,0.06974 0.06974,0.06625 0.06974,0.160407 0,0.09415 -0.06974,0.163893 -0.06626,0.06625 -0.160406,0.06625 z"
         style="font-style:normal;font-variant:normal;font-weight:bold;font-stretch:normal;line-height:0px;font-family:Comfortaa;-inkscape-font-specification:'Comfortaa Bold';text-align:center;text-anchor:middle;fill:#3591b2;fill-opacity:0.40358743;stroke-width:0.08717742px"
         id="path419674-4-1" />
      <path
         inkscape:connector-curvature="0"
         d="m -60.22421,78.95087 q 0.27548,0 0.49168,0.125536 0.219687,0.122048 0.341736,0.341735 0.125535,0.219688 0.125535,0.502142 v 0.753213 q 0,0.275481 -0.122048,0.502143 -0.122048,0.226661 -0.345223,0.355683 -0.219687,0.13251 -0.498655,0.13251 -0.251071,0 -0.467271,-0.101126 -0.2162,-0.09764 -0.362658,-0.282455 -0.03836,-0.04882 -0.03836,-0.09764 0,-0.07323 0.07323,-0.125536 0.04882,-0.03138 0.09764,-0.03138 0.08718,0 0.142971,0.07323 0.09415,0.122049 0.237122,0.184817 0.142971,0.06625 0.324301,0.06625 0.170867,0 0.310351,-0.08369 0.139484,-0.0802 0.223174,-0.24061 0.08369,-0.156919 0.08369,-0.376606 v -0.170868 q -0.1081,0.19179 -0.285942,0.29989 -0.177842,0.1081 -0.401016,0.1081 -0.258046,0 -0.463784,-0.122048 -0.202252,-0.125535 -0.317326,-0.345223 -0.111587,-0.219687 -0.111587,-0.498655 0,-0.282454 0.122048,-0.502142 0.122048,-0.219687 0.341736,-0.341735 0.219687,-0.125536 0.498655,-0.125536 z m 0,1.621501 q 0.177841,0 0.317325,-0.08369 0.142971,-0.08369 0.219688,-0.230148 0.0802,-0.149945 0.0802,-0.338249 0,-0.188303 -0.0802,-0.338248 -0.07672,-0.149945 -0.219688,-0.233636 -0.139484,-0.08369 -0.317325,-0.08369 -0.177842,0 -0.320813,0.08369 -0.139484,0.08369 -0.219688,0.233636 -0.0802,0.149945 -0.0802,0.338248 0,0.188304 0.0802,0.338249 0.0802,0.146458 0.219688,0.230148 0.142971,0.08369 0.320813,0.08369 z"
         style="font-style:normal;font-variant:normal;font-weight:bold;font-stretch:normal;line-height:0px;font-family:Comfortaa;-inkscape-font-specification:'Comfortaa Bold';text-align:center;text-anchor:middle;fill:#3591b2;fill-opacity:0.40358743;stroke-width:0.08717742px"
         id="path419676-9-0" />
      <path
         inkscape:connector-curvature="0"
         d="m -57.784005,78.947383 q 0.24061,0 0.4324,0.104613 0.191791,0.104613 0.299891,0.306865 0.1081,0.198764 0.1081,0.481219 v 0.857826 q 0,0.07672 -0.05231,0.129023 -0.04882,0.04882 -0.125535,0.04882 -0.07672,0 -0.129023,-0.04882 -0.04882,-0.05231 -0.04882,-0.129023 V 79.84008 q 0,-0.282455 -0.153432,-0.425426 -0.149946,-0.146458 -0.401017,-0.146458 -0.146458,0 -0.268506,0.05928 -0.118562,0.05928 -0.188303,0.160406 -0.06625,0.101126 -0.06625,0.226662 v 0.983361 q 0,0.07672 -0.04882,0.129023 -0.04882,0.04882 -0.129022,0.04882 -0.07672,0 -0.129023,-0.04882 -0.04882,-0.05231 -0.04882,-0.129023 V 79.14266 q 0,-0.0802 0.04882,-0.129023 0.05231,-0.04882 0.129023,-0.04882 0.0802,0 0.129022,0.04882 0.04882,0.04882 0.04882,0.129023 v 0.03836 q 0.111587,-0.111587 0.265019,-0.170868 0.153432,-0.06277 0.327787,-0.06277 z"
         style="font-style:normal;font-variant:normal;font-weight:bold;font-stretch:normal;line-height:0px;font-family:Comfortaa;-inkscape-font-specification:'Comfortaa Bold';text-align:center;text-anchor:middle;fill:#3591b2;fill-opacity:0.40358743;stroke-width:0.08717742px"
         id="path419678-0-3" />
      <path
         inkscape:connector-curvature="0"
         d="m -54.469137,78.95087 q 0.268506,0 0.484706,0.129023 0.219687,0.125535 0.345223,0.34871 0.129022,0.219687 0.129022,0.49168 v 0.777623 q 0,0.07672 -0.05231,0.129023 -0.04882,0.04882 -0.125536,0.04882 -0.07672,0 -0.129022,-0.04882 -0.04882,-0.05231 -0.04882,-0.129023 v -0.129022 q -0.122048,0.149945 -0.296403,0.233635 -0.174355,0.08369 -0.376606,0.08369 -0.251071,0 -0.45681,-0.125535 -0.202252,-0.125536 -0.320813,-0.345223 -0.115074,-0.223174 -0.115074,-0.495168 0,-0.271993 0.125535,-0.49168 0.125536,-0.223175 0.345223,-0.34871 0.223174,-0.129023 0.491681,-0.129023 z m 0,1.621501 q 0.174354,0 0.313838,-0.08369 0.142971,-0.08718 0.223175,-0.233635 0.0802,-0.149945 0.0802,-0.334762 0,-0.184816 -0.0802,-0.334761 -0.0802,-0.149945 -0.223175,-0.233635 -0.139484,-0.08718 -0.313838,-0.08718 -0.174355,0 -0.317326,0.08718 -0.139484,0.08369 -0.223175,0.233635 -0.0802,0.149945 -0.0802,0.334761 0,0.184817 0.0802,0.334762 0.08369,0.146458 0.223175,0.233635 0.142971,0.08369 0.317326,0.08369 z"
         style="font-style:normal;font-variant:normal;font-weight:bold;font-stretch:normal;line-height:0px;font-family:Comfortaa;-inkscape-font-specification:'Comfortaa Bold';text-align:center;text-anchor:middle;fill:#3591b2;fill-opacity:0.40358743;stroke-width:0.08717742px"
         id="path419680-9-0" />
      <path
         inkscape:connector-curvature="0"
         d="m -52.028932,78.947383 q 0.24061,0 0.4324,0.104613 0.19179,0.104613 0.29989,0.306865 0.1081,0.198764 0.1081,0.481219 v 0.857826 q 0,0.07672 -0.05231,0.129023 -0.04882,0.04882 -0.125536,0.04882 -0.07672,0 -0.129022,-0.04882 -0.04882,-0.05231 -0.04882,-0.129023 V 79.84008 q 0,-0.282455 -0.153432,-0.425426 -0.149945,-0.146458 -0.401016,-0.146458 -0.146458,0 -0.268507,0.05928 -0.118561,0.05928 -0.188303,0.160406 -0.06625,0.101126 -0.06625,0.226662 v 0.983361 q 0,0.07672 -0.04882,0.129023 -0.04882,0.04882 -0.129023,0.04882 -0.07672,0 -0.129022,-0.04882 -0.04882,-0.05231 -0.04882,-0.129023 V 79.14266 q 0,-0.0802 0.04882,-0.129023 0.05231,-0.04882 0.129022,-0.04882 0.0802,0 0.129023,0.04882 0.04882,0.04882 0.04882,0.129023 v 0.03836 q 0.111587,-0.111587 0.26502,-0.170868 0.153432,-0.06277 0.327787,-0.06277 z"
         style="font-style:normal;font-variant:normal;font-weight:bold;font-stretch:normal;line-height:0px;font-family:Comfortaa;-inkscape-font-specification:'Comfortaa Bold';text-align:center;text-anchor:middle;fill:#3591b2;fill-opacity:0.40358743;stroke-width:0.08717742px"
         id="path419682-1-4" />
      <path
         inkscape:connector-curvature="0"
         d="m -48.954564,78.148838 q 0.0802,0 0.129022,0.04882 0.04882,0.04882 0.04882,0.129023 v 1.590116 q 0,0.271994 -0.129023,0.495168 -0.125535,0.219687 -0.345223,0.34871 -0.2162,0.125535 -0.484706,0.125535 -0.268507,0 -0.491681,-0.125535 -0.219687,-0.129023 -0.345223,-0.34871 -0.125535,-0.223174 -0.125535,-0.495168 0,-0.271993 0.115074,-0.49168 0.118561,-0.223175 0.320813,-0.34871 0.205739,-0.125536 0.45681,-0.125536 0.202252,0 0.376606,0.08369 0.174355,0.08369 0.296404,0.233635 V 78.32668 q 0,-0.0802 0.04882,-0.129023 0.05231,-0.04882 0.129023,-0.04882 z m -0.78111,2.423533 q 0.174355,0 0.313839,-0.08369 0.142971,-0.08718 0.223174,-0.237122 0.0802,-0.149946 0.0802,-0.334762 0,-0.184816 -0.0802,-0.331274 -0.0802,-0.149945 -0.223174,-0.233635 -0.139484,-0.08718 -0.313839,-0.08718 -0.174355,0 -0.317326,0.08718 -0.139484,0.08369 -0.223174,0.233635 -0.0802,0.146458 -0.0802,0.331274 0,0.184816 0.0802,0.334762 0.08369,0.149945 0.223174,0.237122 0.142971,0.08369 0.317326,0.08369 z"
         style="font-style:normal;font-variant:normal;font-weight:bold;font-stretch:normal;line-height:0px;font-family:Comfortaa;-inkscape-font-specification:'Comfortaa Bold';text-align:center;text-anchor:middle;fill:#3591b2;fill-opacity:0.40358743;stroke-width:0.08717742px"
         id="path419684-7-4" />
      <path
         inkscape:connector-curvature="0"
         d="m -46.098306,78.95087 q 0.251071,0 0.453323,0.125536 0.205738,0.125535 0.320813,0.34871 0.118561,0.219687 0.118561,0.49168 0,0.271994 -0.125536,0.495168 -0.125535,0.219687 -0.348709,0.34871 -0.219687,0.125535 -0.488194,0.125535 -0.268506,0 -0.488194,-0.125535 -0.2162,-0.129023 -0.345222,-0.34871 Q -47.127,80.18879 -47.127,79.916796 V 78.32668 q 0,-0.0802 0.04882,-0.129023 0.05231,-0.04882 0.129022,-0.04882 0.0802,0 0.129023,0.04882 0.04882,0.04882 0.04882,0.129023 v 0.941516 q 0.122049,-0.149945 0.296403,-0.233635 0.174355,-0.08369 0.376607,-0.08369 z m -0.06974,1.621501 q 0.174355,0 0.313839,-0.08369 0.142971,-0.08718 0.223174,-0.237122 0.08369,-0.149946 0.08369,-0.334762 0,-0.184816 -0.08369,-0.331274 -0.0802,-0.149945 -0.223174,-0.233635 -0.139484,-0.08718 -0.313839,-0.08718 -0.174355,0 -0.317326,0.08718 -0.139484,0.08369 -0.219687,0.233635 -0.0802,0.146458 -0.0802,0.331274 0,0.184816 0.0802,0.334762 0.0802,0.149945 0.219687,0.237122 0.142971,0.08369 0.317326,0.08369 z"
         style="font-style:normal;font-variant:normal;font-weight:bold;font-stretch:normal;line-height:0px;font-family:Comfortaa;-inkscape-font-specification:'Comfortaa Bold';text-align:center;text-anchor:middle;fill:#3591b2;fill-opacity:0.40358743;stroke-width:0.08717742px"
         id="path419686-7-4" />
      <path
         inkscape:connector-curvature="0"
         d="m -43.102453,78.961332 q 0.0802,0 0.129023,0.04882 0.04882,0.04882 0.04882,0.129023 v 1.555245 q 0,0.07672 -0.04882,0.129023 -0.04882,0.04882 -0.129023,0.04882 -0.07672,0 -0.129022,-0.04882 -0.04882,-0.05231 -0.04882,-0.129023 v -0.03836 q -0.111587,0.111587 -0.265019,0.174355 -0.153432,0.05928 -0.327787,0.05928 -0.24061,0 -0.4324,-0.104613 -0.191791,-0.104613 -0.299891,-0.303378 -0.1081,-0.202252 -0.1081,-0.484706 v -0.857826 q 0,-0.07672 0.04882,-0.125536 0.05231,-0.05231 0.129022,-0.05231 0.07672,0 0.125536,0.05231 0.05231,0.04882 0.05231,0.125536 V 79.997 q 0,0.282454 0.149945,0.428913 0.153433,0.142971 0.404504,0.142971 0.146458,0 0.265019,-0.05928 0.122049,-0.05928 0.188303,-0.160407 0.06974,-0.101125 0.06974,-0.226661 v -0.983361 q 0,-0.0802 0.04882,-0.129023 0.05231,-0.04882 0.129022,-0.04882 z"
         style="font-style:normal;font-variant:normal;font-weight:bold;font-stretch:normal;line-height:0px;font-family:Comfortaa;-inkscape-font-specification:'Comfortaa Bold';text-align:center;text-anchor:middle;fill:#3591b2;fill-opacity:0.40358743;stroke-width:0.08717742px"
         id="path419688-1-4" />
      <path
         inkscape:connector-curvature="0"
         d="m -42.085473,80.872261 q -0.07672,0 -0.129023,-0.04882 -0.04882,-0.05231 -0.04882,-0.129023 V 79.14266 q 0,-0.0802 0.04882,-0.129023 0.05231,-0.04882 0.129023,-0.04882 0.0802,0 0.129022,0.04882 0.04882,0.04882 0.04882,0.129023 v 1.551758 q 0,0.07672 -0.04882,0.129023 -0.04882,0.04882 -0.129022,0.04882 z m 0,-2.217794 q -0.09415,0 -0.163894,-0.06625 -0.06625,-0.06974 -0.06625,-0.163893 0,-0.09415 0.06625,-0.160407 0.06974,-0.06974 0.163894,-0.06974 0.09415,0 0.160406,0.06974 0.06974,0.06625 0.06974,0.160407 0,0.09415 -0.06974,0.163893 -0.06625,0.06625 -0.160406,0.06625 z"
         style="font-style:normal;font-variant:normal;font-weight:bold;font-stretch:normal;line-height:0px;font-family:Comfortaa;-inkscape-font-specification:'Comfortaa Bold';text-align:center;text-anchor:middle;fill:#3591b2;fill-opacity:0.40358743;stroke-width:0.08717742px"
         id="path419690-1-7" />
      <path
         inkscape:connector-curvature="0"
         d="m -40.7892,80.872261 q -0.149945,0 -0.271993,-0.0802 -0.118561,-0.08369 -0.184816,-0.230149 -0.06625,-0.149945 -0.06625,-0.334761 v -1.903955 q 0,-0.07672 0.04882,-0.125536 0.04882,-0.04882 0.125536,-0.04882 0.07672,0 0.125535,0.04882 0.04882,0.04882 0.04882,0.125536 v 1.903955 q 0,0.129023 0.04882,0.212713 0.04882,0.08369 0.125535,0.08369 h 0.08718 q 0.06974,0 0.111587,0.04882 0.04533,0.04882 0.04533,0.125535 0,0.07672 -0.06626,0.125536 -0.06625,0.04882 -0.170867,0.04882 z"
         style="font-style:normal;font-variant:normal;font-weight:bold;font-stretch:normal;line-height:0px;font-family:Comfortaa;-inkscape-font-specification:'Comfortaa Bold';text-align:center;text-anchor:middle;fill:#3591b2;fill-opacity:0.40358743;stroke-width:0.08717742px"
         id="path419692-5-6" />
      <path
         inkscape:connector-curvature="0"
         d="m -38.649919,78.148838 q 0.0802,0 0.129023,0.04882 0.04882,0.04882 0.04882,0.129023 v 1.590116 q 0,0.271994 -0.129022,0.495168 -0.125536,0.219687 -0.345223,0.34871 -0.2162,0.125535 -0.484707,0.125535 -0.268506,0 -0.49168,-0.125535 -0.219687,-0.129023 -0.345223,-0.34871 -0.125535,-0.223174 -0.125535,-0.495168 0,-0.271993 0.115074,-0.49168 0.118561,-0.223175 0.320813,-0.34871 0.205738,-0.125536 0.456809,-0.125536 0.202252,0 0.376607,0.08369 0.174355,0.08369 0.296403,0.233635 V 78.32668 q 0,-0.0802 0.04882,-0.129023 0.05231,-0.04882 0.129022,-0.04882 z m -0.78111,2.423533 q 0.174355,0 0.313839,-0.08369 0.142971,-0.08718 0.223174,-0.237122 0.0802,-0.149946 0.0802,-0.334762 0,-0.184816 -0.0802,-0.331274 -0.0802,-0.149945 -0.223174,-0.233635 -0.139484,-0.08718 -0.313839,-0.08718 -0.174354,0 -0.317325,0.08718 -0.139484,0.08369 -0.223175,0.233635 -0.0802,0.146458 -0.0802,0.331274 0,0.184816 0.0802,0.334762 0.08369,0.149945 0.223175,0.237122 0.142971,0.08369 0.317325,0.08369 z"
         style="font-style:normal;font-variant:normal;font-weight:bold;font-stretch:normal;line-height:0px;font-family:Comfortaa;-inkscape-font-specification:'Comfortaa Bold';text-align:center;text-anchor:middle;fill:#3591b2;fill-opacity:0.40358743;stroke-width:0.08717742px"
         id="path419694-9-3" />
      <path
         inkscape:connector-curvature="0"
         d="m -36.606152,80.872261 q -0.07672,0 -0.129023,-0.05231 -0.05231,-0.05231 -0.05231,-0.129023 v -2.360765 q 0,-0.0802 0.05231,-0.129023 0.05231,-0.05231 0.129023,-0.05231 h 0.631164 q 0.394042,0 0.700907,0.174355 0.306865,0.174355 0.477732,0.484706 0.170868,0.306865 0.170868,0.700907 0,0.394042 -0.170868,0.704394 -0.170867,0.310351 -0.477732,0.484706 -0.306865,0.174355 -0.700907,0.174355 z m 0.631164,-0.320813 q 0.289429,0 0.516091,-0.13251 0.230148,-0.132509 0.355684,-0.369632 0.129022,-0.24061 0.129022,-0.5405 0,-0.29989 -0.129022,-0.537013 -0.125536,-0.237123 -0.355684,-0.369632 -0.226662,-0.13251 -0.516091,-0.13251 h -0.449835 v 2.081797 z"
         style="font-style:normal;font-variant:normal;font-weight:bold;font-stretch:normal;line-height:0px;font-family:Comfortaa;-inkscape-font-specification:'Comfortaa Bold';text-align:center;text-anchor:middle;fill:#3591b2;fill-opacity:0.40358743;stroke-width:0.08717742px"
         id="path419696-7-1" />
      <path
         inkscape:connector-curvature="0"
         d="m -33.878536,80.872261 q -0.07672,0 -0.129022,-0.04882 -0.04882,-0.05231 -0.04882,-0.13251 v -2.360765 q 0,-0.0802 0.04882,-0.129023 0.05231,-0.05231 0.129022,-0.05231 0.03836,0 0.07672,0.02092 0.03836,0.01744 0.06277,0.04533 l 1.520375,2.022516 v -1.907442 q 0,-0.0802 0.05231,-0.129023 0.05231,-0.05231 0.129023,-0.05231 0.07672,0 0.125535,0.05231 0.05231,0.04882 0.05231,0.129023 v 2.360765 q 0,0.0802 -0.05231,0.13251 -0.04882,0.04882 -0.125535,0.04882 -0.03836,0 -0.0802,-0.01395 -0.03836,-0.01744 -0.05928,-0.04882 l -1.520374,-2.022516 v 1.903955 q 0,0.07672 -0.05231,0.129023 -0.04882,0.05231 -0.129023,0.05231 z"
         style="font-style:normal;font-variant:normal;font-weight:bold;font-stretch:normal;line-height:0px;font-family:Comfortaa;-inkscape-font-specification:'Comfortaa Bold';text-align:center;text-anchor:middle;fill:#3591b2;fill-opacity:0.40358743;stroke-width:0.08717742px"
         id="path419698-7-7" />
      <path
         inkscape:connector-curvature="0"
         d="m -29.125347,80.617703 q 0.01744,0.04533 0.01744,0.07672 0,0.07323 -0.05231,0.125536 -0.05231,0.05231 -0.129023,0.05231 -0.05231,0 -0.101125,-0.0279 -0.04533,-0.03138 -0.06625,-0.08369 l -0.195278,-0.488194 h -1.251868 l -0.198764,0.488194 q -0.02441,0.05231 -0.06974,0.08369 -0.04533,0.0279 -0.09764,0.0279 -0.07672,0 -0.129023,-0.05231 -0.04882,-0.05579 -0.04882,-0.129023 0,-0.03487 0.01744,-0.0802 l 0.979874,-2.339843 q 0.05231,-0.122048 0.170868,-0.122048 0.125535,0 0.170868,0.122048 z m -1.656371,-0.645113 h 1.007771 l -0.498655,-1.241407 z"
         style="font-style:normal;font-variant:normal;font-weight:bold;font-stretch:normal;line-height:0px;font-family:Comfortaa;-inkscape-font-specification:'Comfortaa Bold';text-align:center;text-anchor:middle;fill:#3591b2;fill-opacity:0.40358743;stroke-width:0.08717742px"
         id="path419700-6-5" />
    </g>
    <g
       transform="matrix(6.7646491,0,0,6.7646491,336.42752,-262.28896)"
       style="font-style:normal;font-variant:normal;font-weight:normal;font-stretch:normal;font-size:medium;line-height:125%;font-family:inconsolata;-inkscape-font-specification:inconsolata;letter-spacing:0px;word-spacing:0px;fill:#276a8d;fill-opacity:1;stroke:none;stroke-width:0.08717742px;stroke-linecap:butt;stroke-linejoin:miter;stroke-opacity:1"
       id="g419757-7-9">
      <path
         inkscape:connector-curvature="0"
         d="m -67.085974,86.047114 q -0.512603,0 -0.917106,-0.226662 -0.401017,-0.223174 -0.627678,-0.62419 -0.223174,-0.404503 -0.223174,-0.917107 0,-0.512603 0.223174,-0.913619 0.226661,-0.404504 0.627678,-0.627678 0.404503,-0.226661 0.917106,-0.226661 0.512604,0 0.91362,0.226661 0.404503,0.223174 0.627677,0.627678 0.226662,0.401016 0.226662,0.913619 0,0.320813 -0.09067,0.575371 -0.09066,0.251071 -0.251071,0.390555 -0.160406,0.142971 -0.366145,0.142971 -0.195278,0 -0.317326,-0.104613 -0.122048,-0.104613 -0.122048,-0.282455 v -0.156919 q -0.101126,0.181329 -0.285942,0.296403 -0.181329,0.115075 -0.369633,0.115075 -0.271993,0 -0.484706,-0.122049 -0.212713,-0.125535 -0.334762,-0.34871 -0.118561,-0.223174 -0.118561,-0.505629 0,-0.282455 0.122048,-0.502142 0.125536,-0.223174 0.345223,-0.348709 0.223174,-0.125536 0.505629,-0.125536 0.282455,0 0.505629,0.125536 0.223175,0.122048 0.345223,0.345222 0.125536,0.223174 0.125536,0.505629 v 0.557936 q 0,0.184816 0.118561,0.184816 0.08369,0 0.153432,-0.09415 0.07323,-0.09764 0.115074,-0.265019 0.04185,-0.170868 0.04185,-0.383581 0,-0.40799 -0.18133,-0.725316 -0.177842,-0.320813 -0.498654,-0.498655 -0.317326,-0.181329 -0.725317,-0.181329 -0.40799,0 -0.728803,0.181329 -0.317326,0.177842 -0.498655,0.498655 -0.177842,0.317326 -0.177842,0.725316 0,0.407991 0.177842,0.728804 0.181329,0.317326 0.498655,0.495168 0.320813,0.181329 0.728803,0.181329 0.139484,0 0.299891,-0.03487 0.163893,-0.03138 0.278967,-0.08369 0.06974,-0.03138 0.118562,-0.03138 0.06974,0 0.1081,0.04882 0.04185,0.05231 0.04185,0.142971 0,0.09415 -0.1081,0.16738 -0.1081,0.07323 -0.303378,0.111588 -0.19179,0.04184 -0.435887,0.04184 z m 0,-1.157717 q 0.177842,0 0.317326,-0.07672 0.139484,-0.07672 0.2162,-0.2162 0.07672,-0.139484 0.07672,-0.317326 0,-0.177842 -0.07672,-0.317326 -0.07672,-0.139483 -0.2162,-0.2162 -0.139484,-0.07672 -0.317326,-0.07672 -0.177842,0 -0.317326,0.07672 -0.139484,0.07672 -0.2162,0.2162 -0.07672,0.139484 -0.07672,0.317326 0,0.177842 0.07672,0.317326 0.07672,0.139484 0.2162,0.2162 0.139484,0.07672 0.317326,0.07672 z"
         style="font-style:normal;font-variant:normal;font-weight:bold;font-stretch:normal;line-height:0px;font-family:Comfortaa;-inkscape-font-specification:'Comfortaa Bold';text-align:center;text-anchor:middle;fill:#276a8d;fill-opacity:1;stroke-width:0.08717742px"
         id="path419702-3-6" />
      <path
         inkscape:connector-curvature="0"
         d="m -64.000764,83.309742 q 0.275481,0 0.491681,0.125536 0.219687,0.122048 0.341735,0.341735 0.125536,0.219687 0.125536,0.502142 v 0.753213 q 0,0.275481 -0.122049,0.502142 -0.122048,0.226662 -0.345222,0.355684 -0.219688,0.13251 -0.498655,0.13251 -0.251071,0 -0.467271,-0.101126 -0.2162,-0.09764 -0.362659,-0.282455 -0.03836,-0.04882 -0.03836,-0.09764 0,-0.07323 0.07323,-0.125536 0.04882,-0.03138 0.09764,-0.03138 0.08718,0 0.142971,0.07323 0.09415,0.122049 0.237123,0.184816 0.142971,0.06625 0.3243,0.06625 0.170868,0 0.310352,-0.08369 0.139483,-0.0802 0.223174,-0.24061 0.08369,-0.156919 0.08369,-0.376606 v -0.170868 q -0.1081,0.19179 -0.285942,0.29989 -0.177842,0.1081 -0.401016,0.1081 -0.258045,0 -0.463784,-0.122048 -0.202252,-0.125536 -0.317326,-0.345223 -0.111587,-0.219687 -0.111587,-0.498655 0,-0.282455 0.122048,-0.502142 0.122049,-0.219687 0.341736,-0.341735 0.219687,-0.125536 0.498655,-0.125536 z m 0,1.621501 q 0.177842,0 0.317326,-0.08369 0.142971,-0.08369 0.219687,-0.230148 0.0802,-0.149945 0.0802,-0.338249 0,-0.188303 -0.0802,-0.338248 -0.07672,-0.149945 -0.219687,-0.233636 -0.139484,-0.08369 -0.317326,-0.08369 -0.177842,0 -0.320813,0.08369 -0.139484,0.08369 -0.219687,0.233636 -0.0802,0.149945 -0.0802,0.338248 0,0.188304 0.0802,0.338249 0.0802,0.146458 0.219687,0.230148 0.142971,0.08369 0.320813,0.08369 z"
         style="font-style:normal;font-variant:normal;font-weight:bold;font-stretch:normal;line-height:0px;font-family:Comfortaa;-inkscape-font-specification:'Comfortaa Bold';text-align:center;text-anchor:middle;fill:#276a8d;fill-opacity:1;stroke-width:0.08717742px"
         id="path419704-6-2" />
      <path
         inkscape:connector-curvature="0"
         d="m -60.796884,84.247771 q 0,0.06625 -0.04533,0.111588 -0.04533,0.04185 -0.115075,0.04185 h -1.325097 q 0.03836,0.244097 0.219688,0.394042 0.184816,0.149945 0.449835,0.149945 0.104613,0 0.2162,-0.03836 0.115074,-0.03836 0.188303,-0.09415 0.04882,-0.03836 0.115075,-0.03836 0.06625,0 0.104613,0.03487 0.06277,0.05231 0.06277,0.118561 0,0.06277 -0.05579,0.104613 -0.118562,0.09415 -0.296403,0.153433 -0.174355,0.05928 -0.334762,0.05928 -0.285942,0 -0.512603,-0.122048 -0.226662,-0.125536 -0.355684,-0.345223 -0.125536,-0.219687 -0.125536,-0.498655 0,-0.278967 0.118562,-0.498655 0.122048,-0.223174 0.334761,-0.345222 0.2162,-0.125536 0.488194,-0.125536 0.268506,0 0.463784,0.118562 0.195277,0.118561 0.29989,0.331274 0.104613,0.212713 0.104613,0.488193 z m -0.868287,-0.638138 q -0.254558,0 -0.414965,0.139483 -0.156919,0.139484 -0.198764,0.37312 h 1.161203 q -0.03138,-0.233636 -0.174355,-0.37312 -0.142971,-0.139483 -0.373119,-0.139483 z"
         style="font-style:normal;font-variant:normal;font-weight:bold;font-stretch:normal;line-height:0px;font-family:Comfortaa;-inkscape-font-specification:'Comfortaa Bold';text-align:center;text-anchor:middle;fill:#276a8d;fill-opacity:1;stroke-width:0.08717742px"
         id="path419706-5-1" />
      <path
         inkscape:connector-curvature="0"
         d="m -59.394744,83.306255 q 0.24061,0 0.4324,0.104613 0.19179,0.104613 0.29989,0.306865 0.108101,0.198764 0.108101,0.481219 v 0.857826 q 0,0.07672 -0.05231,0.129023 -0.04882,0.04882 -0.125535,0.04882 -0.07672,0 -0.129023,-0.04882 -0.04882,-0.05231 -0.04882,-0.129023 v -0.857826 q 0,-0.282455 -0.153433,-0.425426 -0.149945,-0.146458 -0.401016,-0.146458 -0.146458,0 -0.268506,0.05928 -0.118562,0.05928 -0.188304,0.160406 -0.06626,0.101126 -0.06626,0.226662 v 0.983361 q 0,0.07672 -0.04882,0.129023 -0.04882,0.04882 -0.129023,0.04882 -0.07672,0 -0.129022,-0.04882 -0.04882,-0.05231 -0.04882,-0.129023 v -1.555245 q 0,-0.0802 0.04882,-0.129023 0.05231,-0.04882 0.129022,-0.04882 0.0802,0 0.129023,0.04882 0.04882,0.04882 0.04882,0.129023 v 0.03836 q 0.111588,-0.111587 0.26502,-0.170868 0.153432,-0.06277 0.327787,-0.06277 z"
         style="font-style:normal;font-variant:normal;font-weight:bold;font-stretch:normal;line-height:0px;font-family:Comfortaa;-inkscape-font-specification:'Comfortaa Bold';text-align:center;text-anchor:middle;fill:#276a8d;fill-opacity:1;stroke-width:0.08717742px"
         id="path419708-6-7" />
      <path
         inkscape:connector-curvature="0"
         d="m -57.101487,85.245081 q -0.278968,0 -0.498655,-0.122048 -0.219687,-0.125536 -0.341735,-0.345223 -0.122049,-0.219687 -0.122049,-0.498655 0,-0.282455 0.122049,-0.502142 0.122048,-0.219687 0.341735,-0.341735 0.219687,-0.125536 0.498655,-0.125536 0.275481,0 0.491681,0.125536 0.219687,0.122048 0.341735,0.341735 0.125536,0.219687 0.125536,0.502142 0,0.278968 -0.122049,0.498655 -0.122048,0.219687 -0.341735,0.345223 -0.2162,0.122048 -0.495168,0.122048 z m 0,-0.313838 q 0.177842,0 0.317326,-0.08369 0.142971,-0.08369 0.219687,-0.230148 0.0802,-0.149945 0.0802,-0.338249 0,-0.188303 -0.0802,-0.338248 -0.07672,-0.149945 -0.219687,-0.233636 -0.139484,-0.08369 -0.317326,-0.08369 -0.177842,0 -0.320813,0.08369 -0.139484,0.08369 -0.219687,0.233636 -0.0802,0.149945 -0.0802,0.338248 0,0.188304 0.0802,0.338249 0.0802,0.146458 0.219687,0.230148 0.142971,0.08369 0.320813,0.08369 z"
         style="font-style:normal;font-variant:normal;font-weight:bold;font-stretch:normal;line-height:0px;font-family:Comfortaa;-inkscape-font-specification:'Comfortaa Bold';text-align:center;text-anchor:middle;fill:#276a8d;fill-opacity:1;stroke-width:0.08717742px"
         id="path419710-3-8" />
      <path
         inkscape:connector-curvature="0"
         d="m -53.604691,83.306255 q 0.303377,0 0.488194,0.198765 0.188303,0.198764 0.188303,0.554448 v 0.99731 q 0,0.07672 -0.04882,0.129023 -0.04882,0.04882 -0.129022,0.04882 -0.07672,0 -0.129023,-0.04882 -0.04882,-0.05231 -0.04882,-0.129023 v -0.99731 q 0,-0.212713 -0.1081,-0.320813 -0.104613,-0.111587 -0.282455,-0.111587 -0.181329,0 -0.29989,0.125536 -0.115075,0.125535 -0.115075,0.320813 v 0.983361 q 0,0.07672 -0.04882,0.129023 -0.04882,0.04882 -0.129023,0.04882 -0.07672,0 -0.129022,-0.04882 -0.04882,-0.05231 -0.04882,-0.129023 v -0.99731 q 0,-0.212713 -0.1081,-0.320813 -0.104613,-0.111587 -0.282455,-0.111587 -0.184816,0 -0.303377,0.125536 -0.115074,0.125535 -0.115074,0.320813 v 0.983361 q 0,0.07672 -0.04882,0.129023 -0.04882,0.04882 -0.129022,0.04882 -0.07672,0 -0.129023,-0.04882 -0.04882,-0.05231 -0.04882,-0.129023 V 83.50502 q 0,-0.0802 0.04882,-0.129023 0.05231,-0.04882 0.129023,-0.04882 0.07672,0 0.125535,0.04882 0.04882,0.04533 0.05231,0.122048 0.09066,-0.09066 0.2162,-0.139483 0.125535,-0.05231 0.271993,-0.05231 0.177842,0 0.317326,0.07323 0.142971,0.06974 0.233636,0.202252 0.104613,-0.129023 0.261532,-0.202252 0.15692,-0.07323 0.34871,-0.07323 z"
         style="font-style:normal;font-variant:normal;font-weight:bold;font-stretch:normal;line-height:0px;font-family:Comfortaa;-inkscape-font-specification:'Comfortaa Bold';text-align:center;text-anchor:middle;fill:#276a8d;fill-opacity:1;stroke-width:0.08717742px"
         id="path419712-9-5" />
      <path
         inkscape:connector-curvature="0"
         d="m -50.628454,84.247771 q 0,0.06625 -0.04533,0.111588 -0.04533,0.04185 -0.115074,0.04185 h -1.325097 q 0.03836,0.244097 0.219687,0.394042 0.184816,0.149945 0.449835,0.149945 0.104613,0 0.216201,-0.03836 0.115074,-0.03836 0.188303,-0.09415 0.04882,-0.03836 0.115074,-0.03836 0.06626,0 0.104613,0.03487 0.06277,0.05231 0.06277,0.118561 0,0.06277 -0.05579,0.104613 -0.118561,0.09415 -0.296403,0.153433 -0.174355,0.05928 -0.334762,0.05928 -0.285942,0 -0.512603,-0.122048 -0.226661,-0.125536 -0.355684,-0.345223 -0.125535,-0.219687 -0.125535,-0.498655 0,-0.278967 0.118561,-0.498655 0.122048,-0.223174 0.334761,-0.345222 0.2162,-0.125536 0.488194,-0.125536 0.268507,0 0.463784,0.118562 0.195277,0.118561 0.29989,0.331274 0.104613,0.212713 0.104613,0.488193 z m -0.868287,-0.638138 q -0.254558,0 -0.414965,0.139483 -0.156919,0.139484 -0.198764,0.37312 h 1.161203 q -0.03138,-0.233636 -0.174355,-0.37312 -0.142971,-0.139483 -0.373119,-0.139483 z"
         style="font-style:normal;font-variant:normal;font-weight:bold;font-stretch:normal;line-height:0px;font-family:Comfortaa;-inkscape-font-specification:'Comfortaa Bold';text-align:center;text-anchor:middle;fill:#276a8d;fill-opacity:1;stroke-width:0.08717742px"
         id="path419714-4-7" />
      <path
         inkscape:connector-curvature="0"
         d="m -49.351848,82.828523 q -0.195278,0 -0.313839,0.129022 -0.118561,0.129023 -0.118561,0.341736 v 0.09415 h 0.355684 q 0.07323,0 0.118561,0.04184 0.04533,0.04185 0.04533,0.111587 0,0.06277 -0.04533,0.104613 -0.04533,0.04185 -0.118561,0.04185 h -0.355684 v 1.359968 q 0,0.0802 -0.04882,0.129023 -0.04882,0.04882 -0.135996,0.04882 -0.06974,0 -0.122049,-0.04882 -0.04882,-0.04882 -0.04882,-0.129023 v -1.359968 h -0.149945 q -0.07323,0 -0.118562,-0.04185 -0.04533,-0.04184 -0.04533,-0.104613 0,-0.06974 0.04533,-0.111587 0.04533,-0.04184 0.118562,-0.04184 h 0.149945 v -0.05928 q 0,-0.247584 0.09764,-0.4324 0.101126,-0.188303 0.278968,-0.289429 0.181329,-0.104613 0.411478,-0.104613 0.07672,0 0.125535,0.04533 0.05231,0.04533 0.05231,0.115074 0,0.06974 -0.05231,0.115074 -0.04882,0.04533 -0.125535,0.04533 z"
         style="font-style:normal;font-variant:normal;font-weight:bold;font-stretch:normal;line-height:0px;font-family:Comfortaa;-inkscape-font-specification:'Comfortaa Bold';text-align:center;text-anchor:middle;fill:#276a8d;fill-opacity:1;stroke-width:0.08717742px"
         id="path419716-8-4" />
      <path
         inkscape:connector-curvature="0"
         d="m -48.097692,85.245081 q -0.278968,0 -0.498655,-0.122048 -0.219687,-0.125536 -0.341736,-0.345223 -0.122048,-0.219687 -0.122048,-0.498655 0,-0.282455 0.122048,-0.502142 0.122049,-0.219687 0.341736,-0.341735 0.219687,-0.125536 0.498655,-0.125536 0.27548,0 0.491681,0.125536 0.219687,0.122048 0.341735,0.341735 0.125536,0.219687 0.125536,0.502142 0,0.278968 -0.122049,0.498655 -0.122048,0.219687 -0.341735,0.345223 -0.2162,0.122048 -0.495168,0.122048 z m 0,-0.313838 q 0.177842,0 0.317326,-0.08369 0.142971,-0.08369 0.219687,-0.230148 0.0802,-0.149945 0.0802,-0.338249 0,-0.188303 -0.0802,-0.338248 -0.07672,-0.149945 -0.219687,-0.233636 -0.139484,-0.08369 -0.317326,-0.08369 -0.177842,0 -0.320813,0.08369 -0.139484,0.08369 -0.219687,0.233636 -0.0802,0.149945 -0.0802,0.338248 0,0.188304 0.0802,0.338249 0.0802,0.146458 0.219687,0.230148 0.142971,0.08369 0.320813,0.08369 z"
         style="font-style:normal;font-variant:normal;font-weight:bold;font-stretch:normal;line-height:0px;font-family:Comfortaa;-inkscape-font-specification:'Comfortaa Bold';text-align:center;text-anchor:middle;fill:#276a8d;fill-opacity:1;stroke-width:0.08717742px"
         id="path419718-1-1" />
      <path
         inkscape:connector-curvature="0"
         d="m -45.033296,83.320203 q 0.0802,0 0.129023,0.04882 0.04882,0.04882 0.04882,0.129022 v 1.555246 q 0,0.07672 -0.04882,0.129023 -0.04882,0.04882 -0.129023,0.04882 -0.07672,0 -0.129022,-0.04882 -0.04882,-0.05231 -0.04882,-0.129023 v -0.03836 q -0.111587,0.111587 -0.265019,0.174355 -0.153432,0.05928 -0.327787,0.05928 -0.24061,0 -0.4324,-0.104613 -0.191791,-0.104612 -0.299891,-0.303377 -0.1081,-0.202252 -0.1081,-0.484707 v -0.857826 q 0,-0.07672 0.04882,-0.125535 0.05231,-0.05231 0.129022,-0.05231 0.07672,0 0.125536,0.05231 0.05231,0.04882 0.05231,0.125535 v 0.857826 q 0,0.282455 0.149946,0.428913 0.153432,0.142971 0.404503,0.142971 0.146458,0 0.265019,-0.05928 0.122049,-0.05928 0.188304,-0.160407 0.06974,-0.101126 0.06974,-0.226661 v -0.983362 q 0,-0.0802 0.04882,-0.129022 0.05231,-0.04882 0.129022,-0.04882 z"
         style="font-style:normal;font-variant:normal;font-weight:bold;font-stretch:normal;line-height:0px;font-family:Comfortaa;-inkscape-font-specification:'Comfortaa Bold';text-align:center;text-anchor:middle;fill:#276a8d;fill-opacity:1;stroke-width:0.08717742px"
         id="path419720-2-8" />
      <path
         inkscape:connector-curvature="0"
         d="m -43.280541,83.306255 q 0.24061,0 0.432401,0.104613 0.19179,0.104613 0.29989,0.306865 0.1081,0.198764 0.1081,0.481219 v 0.857826 q 0,0.07672 -0.05231,0.129023 -0.04882,0.04882 -0.125536,0.04882 -0.07672,0 -0.129023,-0.04882 -0.04882,-0.05231 -0.04882,-0.129023 v -0.857826 q 0,-0.282455 -0.153432,-0.425426 -0.149945,-0.146458 -0.401016,-0.146458 -0.146459,0 -0.268507,0.05928 -0.118561,0.05928 -0.188303,0.160406 -0.06626,0.101126 -0.06626,0.226662 v 0.983361 q 0,0.07672 -0.04882,0.129023 -0.04882,0.04882 -0.129023,0.04882 -0.07672,0 -0.129023,-0.04882 -0.04882,-0.05231 -0.04882,-0.129023 v -1.555245 q 0,-0.0802 0.04882,-0.129023 0.05231,-0.04882 0.129023,-0.04882 0.0802,0 0.129023,0.04882 0.04882,0.04882 0.04882,0.129023 v 0.03836 q 0.111587,-0.111587 0.265019,-0.170868 0.153433,-0.06277 0.327787,-0.06277 z"
         style="font-style:normal;font-variant:normal;font-weight:bold;font-stretch:normal;line-height:0px;font-family:Comfortaa;-inkscape-font-specification:'Comfortaa Bold';text-align:center;text-anchor:middle;fill:#276a8d;fill-opacity:1;stroke-width:0.08717742px"
         id="path419722-9-5" />
      <path
         inkscape:connector-curvature="0"
         d="m -40.206172,82.50771 q 0.0802,0 0.129023,0.04882 0.04882,0.04882 0.04882,0.129023 v 1.590116 q 0,0.271994 -0.129022,0.495168 -0.125536,0.219687 -0.345223,0.34871 -0.2162,0.125535 -0.484707,0.125535 -0.268506,0 -0.49168,-0.125535 -0.219687,-0.129023 -0.345223,-0.34871 -0.125535,-0.223174 -0.125535,-0.495168 0,-0.271993 0.115074,-0.491681 0.118561,-0.223174 0.320813,-0.348709 0.205738,-0.125536 0.456809,-0.125536 0.202252,0 0.376607,0.08369 0.174355,0.08369 0.296403,0.233635 v -0.941516 q 0,-0.0802 0.04882,-0.129023 0.05231,-0.04882 0.129022,-0.04882 z m -0.78111,2.423533 q 0.174355,0 0.313839,-0.08369 0.142971,-0.08718 0.223174,-0.237122 0.0802,-0.149946 0.0802,-0.334762 0,-0.184816 -0.0802,-0.331274 -0.0802,-0.149945 -0.223174,-0.233636 -0.139484,-0.08718 -0.313839,-0.08718 -0.174354,0 -0.317325,0.08718 -0.139484,0.08369 -0.223175,0.233636 -0.0802,0.146458 -0.0802,0.331274 0,0.184816 0.0802,0.334762 0.08369,0.149945 0.223175,0.237122 0.142971,0.08369 0.317325,0.08369 z"
         style="font-style:normal;font-variant:normal;font-weight:bold;font-stretch:normal;line-height:0px;font-family:Comfortaa;-inkscape-font-specification:'Comfortaa Bold';text-align:center;text-anchor:middle;fill:#276a8d;fill-opacity:1;stroke-width:0.08717742px"
         id="path419724-3-9" />
      <path
         inkscape:connector-curvature="0"
         d="m -38.465675,83.302768 q 0.184816,0 0.289429,0.05579 0.104613,0.05579 0.104613,0.139483 0,0.02441 -0.0035,0.03487 -0.03138,0.111588 -0.139484,0.111588 -0.01744,0 -0.05231,-0.007 -0.139484,-0.02441 -0.226661,-0.02441 -0.251071,0 -0.404503,0.115074 -0.153433,0.115074 -0.153433,0.310352 v 1.018232 q 0,0.08369 -0.04533,0.129023 -0.04185,0.04533 -0.129023,0.04533 -0.08369,0 -0.129022,-0.04184 -0.04533,-0.04533 -0.04533,-0.13251 v -1.558733 q 0,-0.08369 0.04533,-0.129022 0.04533,-0.04533 0.129022,-0.04533 0.174355,0 0.174355,0.174354 v 0.06625 q 0.104613,-0.122048 0.258045,-0.19179 0.153433,-0.06974 0.327788,-0.06974 z"
         style="font-style:normal;font-variant:normal;font-weight:bold;font-stretch:normal;line-height:0px;font-family:Comfortaa;-inkscape-font-specification:'Comfortaa Bold';text-align:center;text-anchor:middle;fill:#276a8d;fill-opacity:1;stroke-width:0.08717742px"
         id="path419726-9-7" />
      <path
         inkscape:connector-curvature="0"
         d="m -36.246737,83.341126 q 0.1081,0.04184 0.1081,0.135997 0,0.03487 -0.02092,0.08369 l -1.067052,2.399123 q -0.04184,0.1081 -0.135997,0.1081 -0.03487,0 -0.08369,-0.02092 -0.104613,-0.04533 -0.104613,-0.135997 0,-0.04185 0.02092,-0.08369 l 0.348709,-0.784597 -0.784597,-1.488991 q -0.01743,-0.03138 -0.01743,-0.07323 0,-0.04533 0.0279,-0.08369 0.0279,-0.03836 0.07323,-0.05928 0.03138,-0.01395 0.06974,-0.01395 0.09764,0 0.146458,0.09764 l 0.638139,1.269304 0.561422,-1.265817 q 0.04533,-0.101125 0.135997,-0.101125 0.04533,0 0.08369,0.01744 z"
         style="font-style:normal;font-variant:normal;font-weight:bold;font-stretch:normal;line-height:0px;font-family:Comfortaa;-inkscape-font-specification:'Comfortaa Bold';text-align:center;text-anchor:middle;fill:#276a8d;fill-opacity:1;stroke-width:0.08717742px"
         id="path419728-0-5" />
      <path
         inkscape:connector-curvature="0"
         d="m -35.723456,85.286926 q -0.09764,0 -0.170868,-0.06974 -0.06974,-0.07323 -0.06974,-0.170868 0,-0.101126 0.06974,-0.170868 0.07323,-0.07323 0.170868,-0.07323 0.09764,0 0.167381,0.07323 0.07323,0.06974 0.07323,0.170868 0,0.09764 -0.06974,0.170868 -0.06974,0.06974 -0.170868,0.06974 z"
         style="font-style:normal;font-variant:normal;font-weight:bold;font-stretch:normal;line-height:0px;font-family:Comfortaa;-inkscape-font-specification:'Comfortaa Bold';text-align:center;text-anchor:middle;fill:#276a8d;fill-opacity:1;stroke-width:0.08717742px"
         id="path419730-8-3" />
      <path
         inkscape:connector-curvature="0"
         d="m -34.128872,85.245081 q -0.278967,0 -0.498655,-0.122048 -0.219687,-0.125536 -0.341735,-0.345223 -0.122049,-0.219687 -0.122049,-0.498655 0,-0.282455 0.122049,-0.502142 0.122048,-0.219687 0.341735,-0.341735 0.219688,-0.125536 0.498655,-0.125536 0.275481,0 0.491681,0.125536 0.219687,0.122048 0.341736,0.341735 0.125535,0.219687 0.125535,0.502142 0,0.278968 -0.122048,0.498655 -0.122049,0.219687 -0.341736,0.345223 -0.2162,0.122048 -0.495168,0.122048 z m 0,-0.313838 q 0.177842,0 0.317326,-0.08369 0.142971,-0.08369 0.219687,-0.230148 0.0802,-0.149945 0.0802,-0.338249 0,-0.188303 -0.0802,-0.338248 -0.07672,-0.149945 -0.219687,-0.233636 -0.139484,-0.08369 -0.317326,-0.08369 -0.177842,0 -0.320813,0.08369 -0.139484,0.08369 -0.219687,0.233636 -0.0802,0.149945 -0.0802,0.338248 0,0.188304 0.0802,0.338249 0.0802,0.146458 0.219687,0.230148 0.142971,0.08369 0.320813,0.08369 z"
         style="font-style:normal;font-variant:normal;font-weight:bold;font-stretch:normal;line-height:0px;font-family:Comfortaa;-inkscape-font-specification:'Comfortaa Bold';text-align:center;text-anchor:middle;fill:#276a8d;fill-opacity:1;stroke-width:0.08717742px"
         id="path419732-8-8" />
      <path
         inkscape:connector-curvature="0"
         d="m -31.702612,83.302768 q 0.184816,0 0.289429,0.05579 0.104613,0.05579 0.104613,0.139483 0,0.02441 -0.0035,0.03487 -0.03138,0.111588 -0.139484,0.111588 -0.01744,0 -0.05231,-0.007 -0.139484,-0.02441 -0.226662,-0.02441 -0.251071,0 -0.404503,0.115074 -0.153432,0.115074 -0.153432,0.310352 v 1.018232 q 0,0.08369 -0.04533,0.129023 -0.04185,0.04533 -0.129022,0.04533 -0.08369,0 -0.129023,-0.04184 -0.04533,-0.04533 -0.04533,-0.13251 v -1.558733 q 0,-0.08369 0.04533,-0.129022 0.04533,-0.04533 0.129023,-0.04533 0.174355,0 0.174355,0.174354 v 0.06625 q 0.104613,-0.122048 0.258045,-0.19179 0.153432,-0.06974 0.327787,-0.06974 z"
         style="font-style:normal;font-variant:normal;font-weight:bold;font-stretch:normal;line-height:0px;font-family:Comfortaa;-inkscape-font-specification:'Comfortaa Bold';text-align:center;text-anchor:middle;fill:#276a8d;fill-opacity:1;stroke-width:0.08717742px"
         id="path419734-5-8" />
      <path
         inkscape:connector-curvature="0"
         d="m -30.212696,83.309742 q 0.275481,0 0.491681,0.125536 0.219687,0.122048 0.341735,0.341735 0.125536,0.219687 0.125536,0.502142 v 0.753213 q 0,0.275481 -0.122048,0.502142 -0.122049,0.226662 -0.345223,0.355684 -0.219687,0.13251 -0.498655,0.13251 -0.251071,0 -0.467271,-0.101126 -0.2162,-0.09764 -0.362658,-0.282455 -0.03836,-0.04882 -0.03836,-0.09764 0,-0.07323 0.07323,-0.125536 0.04882,-0.03138 0.09764,-0.03138 0.08718,0 0.142971,0.07323 0.09415,0.122049 0.237123,0.184816 0.142971,0.06625 0.3243,0.06625 0.170868,0 0.310352,-0.08369 0.139484,-0.0802 0.223174,-0.24061 0.08369,-0.156919 0.08369,-0.376606 v -0.170868 q -0.1081,0.19179 -0.285942,0.29989 -0.177842,0.1081 -0.401016,0.1081 -0.258045,0 -0.463784,-0.122048 -0.202251,-0.125536 -0.317326,-0.345223 -0.111587,-0.219687 -0.111587,-0.498655 0,-0.282455 0.122049,-0.502142 0.122048,-0.219687 0.341735,-0.341735 0.219687,-0.125536 0.498655,-0.125536 z m 0,1.621501 q 0.177842,0 0.317326,-0.08369 0.142971,-0.08369 0.219687,-0.230148 0.0802,-0.149945 0.0802,-0.338249 0,-0.188303 -0.0802,-0.338248 -0.07672,-0.149945 -0.219687,-0.233636 -0.139484,-0.08369 -0.317326,-0.08369 -0.177842,0 -0.320813,0.08369 -0.139484,0.08369 -0.219687,0.233636 -0.0802,0.149945 -0.0802,0.338248 0,0.188304 0.0802,0.338249 0.0802,0.146458 0.219687,0.230148 0.142971,0.08369 0.320813,0.08369 z"
         style="font-style:normal;font-variant:normal;font-weight:bold;font-stretch:normal;line-height:0px;font-family:Comfortaa;-inkscape-font-specification:'Comfortaa Bold';text-align:center;text-anchor:middle;fill:#276a8d;fill-opacity:1;stroke-width:0.08717742px"
         id="path419736-0-3" />
    </g>
  </g>
</svg>
