<?xml version="1.0" encoding="UTF-8" standalone="no"?>
<!-- Created with Inkscape (http://www.inkscape.org/) -->

<svg
   xmlns:dc="http://purl.org/dc/elements/1.1/"
   xmlns:cc="http://creativecommons.org/ns#"
   xmlns:rdf="http://www.w3.org/1999/02/22-rdf-syntax-ns#"
   xmlns:svg="http://www.w3.org/2000/svg"
   xmlns="http://www.w3.org/2000/svg"
   xmlns:xlink="http://www.w3.org/1999/xlink"
   xmlns:sodipodi="http://sodipodi.sourceforge.net/DTD/sodipodi-0.dtd"
   xmlns:inkscape="http://www.inkscape.org/namespaces/inkscape"
   width="199.47034mm"
   height="117.66914mm"
   viewBox="0 0 199.47034 117.66914"
   version="1.1"
   id="svg420450"
   inkscape:version="0.92.3 (2405546, 2018-03-11)"
   sodipodi:docname="logo.svg">
  <defs
     id="defs420444">
    <linearGradient
       gradientTransform="matrix(4.868911,0,0,4.868911,-401.30457,-980.12215)"
       inkscape:collect="always"
       xlink:href="#linearGradient419386-6"
       id="linearGradient419388-5-3-2-5-3"
       x1="73.381638"
       y1="253.62039"
       x2="111.52764"
       y2="268.32022"
       gradientUnits="userSpaceOnUse" />
    <linearGradient
       inkscape:collect="always"
       id="linearGradient419386-6">
      <stop
         style="stop-color:#133156;stop-opacity:1"
         offset="0"
         id="stop419382-7" />
      <stop
         style="stop-color:#42b7d6;stop-opacity:1"
         offset="1"
         id="stop419384-5" />
    </linearGradient>
    <linearGradient
       gradientTransform="matrix(4.8619511,-0.26024069,0.26024069,4.8619511,-468.99952,-955.09714)"
       inkscape:collect="always"
       xlink:href="#linearGradient419386-6"
       id="linearGradient419388-5-3-2-5-3-5"
       x1="73.381638"
       y1="253.62039"
       x2="111.52764"
       y2="268.32022"
       gradientUnits="userSpaceOnUse" />
  </defs>
  <sodipodi:namedview
     id="base"
     pagecolor="#ffffff"
     bordercolor="#666666"
     borderopacity="1.0"
     inkscape:pageopacity="0.0"
     inkscape:pageshadow="2"
     inkscape:zoom="0.24748737"
     inkscape:cx="-1481.2301"
     inkscape:cy="1061.0469"
     inkscape:document-units="mm"
     inkscape:current-layer="layer1"
     showgrid="false"
     inkscape:window-width="1887"
     inkscape:window-height="2097"
     inkscape:window-x="67"
     inkscape:window-y="33"
     inkscape:window-maximized="0"
     inkscape:snap-global="false" />
  <metadata
     id="metadata420447">
    <rdf:RDF>
      <cc:Work
         rdf:about="">
        <dc:format>image/svg+xml</dc:format>
        <dc:type
           rdf:resource="http://purl.org/dc/dcmitype/StillImage" />
        <dc:title />
      </cc:Work>
    </rdf:RDF>
  </metadata>
  <g
     inkscape:label="Layer 1"
     inkscape:groupmode="layer"
     id="layer1"
     transform="translate(49.478238,-221.33315)">
    <path
       style="font-style:normal;font-variant:normal;font-weight:bold;font-stretch:normal;font-size:medium;line-height:125%;font-family:Comfortaa;-inkscape-font-specification:'Comfortaa Bold';letter-spacing:0px;word-spacing:0px;opacity:0.36600001;fill:url(#linearGradient419388-5-3-2-5-3-5);fill-opacity:1;stroke:none;stroke-width:2.41308069px;stroke-linecap:butt;stroke-linejoin:miter;stroke-opacity:1"
       d="m 30.578824,224.47768 c -0.161198,0.004 -0.3221,0.0125 -0.482066,0.0305 -4.354807,0.47737 -5.913481,6.01365 -2.447452,8.69294 l 9.978744,7.96987 -9.12481,8.68993 c -5.068906,4.46005 2.00464,11.89154 6.70928,7.04877 l 13.177884,-12.52271 c 2.141224,-2.03514 1.99183,-5.49267 -0.316993,-7.3354 l -14.34571,-11.46014 c -0.885709,-0.73001 -2.000902,-1.12363 -3.148614,-1.11145 z M 0.42853563,238.13311 c -2.69400073,0.11962 -4.77911293,2.40318 -4.65066833,5.09676 l 2.1284799,43.67306 c 0.015729,0.38731 0.075468,0.77159 0.1846826,1.14411 l 0.1151148,2.15069 c -2.3968607,-2.64268 -5.24339,-4.64831 -8.5388256,-6.01846 -3.295359,-1.37019 -6.806172,-1.9564 -10.533042,-1.75691 -4.626497,0.24764 -8.774685,1.62953 -12.442052,4.14566 -3.603049,2.51282 -6.385922,5.88564 -8.350501,10.11506 -1.903833,4.16167 -2.721674,8.74817 -2.4534,13.7602 0.268275,5.01205 1.668873,9.51118 4.202265,13.49985 2.529911,3.9243 5.882853,6.96627 10.058313,9.12712 4.236221,2.09304 8.827927,3.00705 13.775716,2.7422 4.947792,-0.26482 9.3532448,-1.66041 13.2133637,-4.18682 3.9208932,-2.59419 6.9299831,-5.97672 9.0265047,-10.14865 2.1573813,-4.23974 3.1009467,-8.86435 2.8326727,-13.87639 L 6.6445095,263.64718 c -0.021989,-0.41085 -0.086186,-0.78997 -0.1748496,-1.15219 L 5.7479906,247.64736 26.174056,246.73549 c 6.591717,-0.19191 6.147516,-10.12512 -0.434739,-9.72791 z M 93.79328,254.05397 c -1.413594,0.0756 -2.577264,0.58896 -3.492891,1.5401 -0.851484,0.94775 -1.237579,2.15956 -1.158472,3.63735 l 2.352645,43.95341 c 0.26828,5.01204 1.668985,9.51117 4.202278,13.49983 2.59418,3.92087 5.94711,6.96285 10.05835,9.12712 4.17196,2.09649 8.72995,3.0123 13.67764,2.74747 4.94788,-0.26484 9.38451,-1.66209 13.30885,-4.19194 3.98522,-2.59764 7.02547,-5.98184 9.12211,-10.15378 2.09315,-4.2363 3.00547,-8.85923 2.7372,-13.87128 -0.26827,-5.01203 -1.60234,-9.48335 -4.00375,-13.41457 -2.34061,-3.99898 -5.46757,-7.05547 -9.38255,-9.16588 -3.85074,-2.11373 -8.08895,-3.04672 -12.7155,-2.79908 -3.7269,0.19948 -7.15753,1.15723 -10.28783,2.87137 -3.13027,1.71407 -5.74401,4.01198 -7.84505,6.89542 l -1.392972,-26.02432 c -0.07904,-1.4778 -0.592434,-2.64145 -1.540032,-3.49293 -0.947873,-0.85153 -2.162093,-1.23741 -3.640026,-1.15829 z m -44.960164,24.6377 c -4.94775,0.26483 -9.413899,1.69757 -13.399068,4.2952 -3.924389,2.52982 -6.933424,5.91238 -9.026503,10.14863 -2.096611,4.17199 -3.010594,8.76367 -2.742321,13.77566 0.268275,5.01208 1.572828,9.5189 3.913436,13.51778 2.401409,3.93128 5.52648,6.95156 9.377177,9.0654 3.914965,2.11025 8.186962,3.04136 12.813483,2.79371 3.726869,-0.19948 7.155173,-1.15441 10.285474,-2.86849 3.130336,-1.71426 5.746478,-4.01235 7.847595,-6.89573 l 0.190832,3.56521 c 0.07563,1.4136 0.58897,2.57727 1.540013,3.49301 1.012015,0.84794 2.223837,1.23402 3.637432,1.15837 1.413642,-0.0756 2.546106,-0.5873 3.397509,-1.53492 0.912297,-1.01548 1.332064,-2.22908 1.256397,-3.64269 l -1.150503,-21.49435 c -0.268278,-5.01199 -1.700943,-9.47806 -4.295113,-13.39898 -2.533416,-3.98862 -5.886332,-7.03064 -10.0583,-9.12709 -4.111197,-2.16427 -8.639781,-3.11556 -13.58754,-2.85072 z m -67.307325,12.30319 c 3.212814,-0.17197 6.14827,0.47629 8.8045317,1.94509 2.7170892,1.40106 4.8880071,3.44304 6.5137926,6.12699 1.6223333,2.61959 2.52390273,5.63368 2.70619058,9.03929 0.18228852,3.40561 -0.39071101,6.53002 -1.72069838,9.37218 -1.3299962,2.84214 -3.26888,5.13514 -5.8174418,6.88261 -2.4877287,1.67983 -5.3388917,2.60637 -8.5517057,2.77834 -3.212885,0.17197 -6.177904,-0.44325 -8.894975,-1.84449 -2.656273,-1.46887 -4.828773,-3.5418 -6.518837,-6.2223 -1.625829,-2.68395 -2.529053,-5.72935 -2.711342,-9.13494 -0.182289,-3.40561 0.392367,-6.49872 1.72585,-9.27653 1.394274,-2.8456 3.334741,-5.10765 5.822485,-6.7873 2.548539,-1.7474 5.429265,-2.70697 8.64215,-2.87894 z m 67.771691,-3.62754 c 3.212831,-0.17196 6.148339,0.47628 8.804589,1.94508 2.717043,1.40106 4.88795,3.44304 6.513731,6.12699 1.625826,2.68391 2.529055,5.7292 2.71134,9.13473 0.182301,3.40575 -0.390704,6.53002 -1.720741,9.37217 -1.333434,2.77782 -3.273974,5.03972 -5.822486,6.78717 -2.487716,1.67984 -5.338936,2.60639 -8.551758,2.77835 -3.212871,0.17197 -6.177857,-0.44324 -8.894952,-1.84449 -2.656252,-1.46887 -4.827136,-3.5107 -6.513765,-6.12686 -1.6258,-2.68395 -2.531569,-5.72906 -2.713861,-9.13481 -0.182285,-3.40553 0.393251,-6.52998 1.723262,-9.3721 1.394281,-2.84559 3.334799,-5.10763 5.82252,-6.7873 2.54856,-1.74739 5.42926,-2.70696 8.642121,-2.87893 z m 67.736438,-3.62566 c 3.2129,-0.17197 6.14839,0.47628 8.80467,1.94507 2.71708,1.40107 4.888,3.44305 6.51376,6.12699 1.68667,2.61616 2.6219,5.62845 2.80418,9.03406 0.18229,3.4056 -0.42436,6.53182 -1.81869,9.37741 -1.32996,2.84216 -3.26885,5.13516 -5.81741,6.88261 -2.48774,1.67985 -5.33895,2.60638 -8.55183,2.77835 -3.21282,0.17196 -6.17779,-0.44325 -8.8948,-1.8445 -2.65632,-1.46887 -4.79515,-3.54359 -6.42092,-6.22754 -1.62583,-2.68394 -2.53162,-5.7292 -2.7139,-9.1348 -0.1823,-3.40561 0.39492,-6.49886 1.72841,-9.27667 1.32998,-2.84216 3.23677,-5.1024 5.72457,-6.78205 2.54847,-1.7474 5.42915,-2.70696 8.64196,-2.87893 z"
       id="path419362-3-8-1-1-3-9"
       inkscape:connector-curvature="0"
       sodipodi:nodetypes="cccccccccccccccccsccsccsccsscccccscssccsccsccsccscssccsccsccscscssccssccsccsccsccssccsccsccsccssccsccsccsccs" />
    <path
       style="font-style:normal;font-variant:normal;font-weight:bold;font-stretch:normal;font-size:medium;line-height:125%;font-family:Comfortaa;-inkscape-font-specification:'Comfortaa Bold';letter-spacing:0px;word-spacing:0px;opacity:0.77399998;fill:url(#linearGradient419388-5-3-2-5-3);fill-opacity:1;stroke:none;stroke-width:2.41308069px;stroke-linecap:butt;stroke-linejoin:miter;stroke-opacity:1"
       d="m 34.512011,224.46863 c -0.161179,-0.005 -0.322312,-0.005 -0.483015,0.005 -4.374088,0.24392 -6.226445,5.68898 -2.908578,8.5497 l 9.53849,8.49184 -9.576233,8.18979 c -5.300047,4.18274 1.366176,11.98168 6.322936,7.39729 L 51.233995,245.3018 c 2.246938,-1.91778 2.282553,-5.37835 0.07558,-7.34187 L 37.596901,225.7491 c -0.845424,-0.77631 -1.937979,-1.22897 -3.084702,-1.27815 z M 3.674948,236.49302 c -2.69654438,-0.0245 -4.900729,2.14431 -4.9164398,4.8409 l -0.2088651,43.72441 c -0.00502,0.38759 0.034123,0.77451 0.1232669,1.15233 v 2.15378 c -2.252184,-2.76702 -4.9874441,-4.92193 -8.2049347,-6.46625 -3.2174133,-1.54438 -6.6918753,-2.31739 -10.4240793,-2.31739 -4.633122,0 -8.849242,1.1582 -12.645852,3.47472 -3.732207,2.31664 -6.691378,5.5359 -8.879209,9.65427 -2.12355,4.05396 -3.185367,8.59017 -3.185367,13.6094 0,5.01922 1.158119,9.58677 3.474699,13.70515 2.316541,4.05391 5.502098,7.27075 9.556094,9.65168 4.118294,2.31648 8.654583,3.4746 13.609455,3.4746 4.954875,0 9.4286234,-1.15812 13.4182599,-3.4746 4.05394703,-2.38093 7.2395288,-5.59777 9.5560421,-9.65168 2.3809088,-4.11838 3.5703087,-8.68593 3.5703087,-13.70515 v -44.01633 c 0,-0.41143 -0.043844,-0.79344 -0.1130168,-1.1599 l 0.07296,-14.86496 20.4456081,0.18119 c 6.592554,0.16071 6.679912,-9.78206 0.08583,-9.73724 z m 92.380321,20.8884 c -1.415618,0 -2.605053,0.45037 -3.570213,1.3512 -0.900925,0.9009 -1.351232,2.09033 -1.351232,3.57024 v 44.01633 c 0,5.01922 1.158228,9.58677 3.474708,13.70515 2.380908,4.05391 5.566448,7.27075 9.556138,9.65168 4.05394,2.31648 8.55647,3.4746 13.51124,3.4746 4.95495,0 9.45993,-1.15812 13.51388,-3.4746 4.11837,-2.38093 7.33515,-5.59777 9.65179,-9.65168 2.31658,-4.11838 3.4747,-8.68593 3.4747,-13.70515 0,-5.01923 -1.09318,-9.55544 -3.28103,-13.6094 -2.12352,-4.11837 -5.08264,-7.33763 -8.87922,-9.65427 -3.73226,-2.31652 -7.91455,-3.47472 -12.54772,-3.47472 -3.73223,0 -7.20915,0.77301 -10.42659,2.31739 -3.21741,1.54432 -5.95024,3.69923 -8.20239,6.46625 v -26.06158 c 0,-1.47991 -0.45041,-2.66934 -1.351142,-3.57024 -0.901,-0.90098 -2.092863,-1.3512 -3.572919,-1.3512 z M 49.842497,279.5808 c -4.95483,0 -9.491163,1.19198 -13.609481,3.5729 -4.053997,2.31644 -7.23953,5.53332 -9.556042,9.65165 -2.316606,4.05397 -3.474704,8.59024 -3.474704,13.6094 0,5.01925 1.061801,9.58937 3.185325,13.70762 2.187852,4.05403 5.147022,7.23702 8.879231,9.55365 3.796579,2.31648 8.012705,3.4746 12.645841,3.4746 3.732211,0 7.206656,-0.77033 10.424089,-2.31466 3.217493,-1.54448 5.952727,-3.69945 8.204958,-6.46641 v 3.57032 c 0,1.41563 0.45037,2.60506 1.351109,3.57032 0.965256,0.90083 2.154706,1.35113 3.570316,1.35113 1.415671,0 2.573863,-0.45037 3.474698,-1.35113 0.965261,-0.96526 1.449295,-2.15469 1.449295,-3.57032 v -21.52512 c 0,-5.01916 -1.19191,-9.55543 -3.572793,-13.6094 -2.316608,-4.11833 -5.50214,-7.33521 -9.556088,-9.65165 -3.989635,-2.38092 -8.460904,-3.5729 -13.415754,-3.5729 z m -67.868705,8.68806 c 3.217413,0 6.114023,0.80424 8.6879822,2.4129 2.6383183,1.54431 4.6969902,3.69939 6.1769972,6.46641 1.4799984,2.70256 2.21917604,5.76053 2.21917604,9.17102 0,3.41046 -0.73917764,6.4998 -2.21917604,9.2668 -1.480007,2.76699 -3.5386789,4.95308 -6.1769972,6.56183 -2.5739592,1.54447 -5.4705692,2.31729 -8.6879822,2.31729 -3.217485,0 -6.145382,-0.77282 -8.783674,-2.31729 -2.573965,-1.60875 -4.632563,-3.79484 -6.17694,-6.56183 -1.480049,-2.767 -2.219208,-5.85634 -2.219208,-9.2668 0,-3.41049 0.739159,-6.46846 2.219208,-9.17102 1.544377,-2.76702 3.602975,-4.9221 6.17694,-6.46641 2.638292,-1.60866 5.566189,-2.4129 8.783674,-2.4129 z m 67.868705,0 c 3.217433,0 6.114089,0.80424 8.688037,2.4129 2.63827,1.54431 4.696939,3.69939 6.17694,6.46641 1.480048,2.76696 2.219212,5.85618 2.219212,9.26658 0,3.41063 -0.739164,6.4998 -2.219212,9.26681 -1.480001,2.70257 -3.53867,4.85751 -6.17694,6.46626 -2.573948,1.54447 -5.470604,2.31729 -8.688037,2.31729 -3.217466,0 -6.145329,-0.77282 -8.783646,-2.31729 -2.573941,-1.60875 -4.63259,-3.76369 -6.176972,-6.46626 -1.480026,-2.76701 -2.221734,-5.85618 -2.221734,-9.26681 0,-3.4104 0.741708,-6.49962 2.221734,-9.26658 1.544382,-2.76702 3.603031,-4.9221 6.176972,-6.46641 2.638317,-1.60866 5.56618,-2.4129 8.783646,-2.4129 z m 67.833413,0 c 3.21749,0 6.11414,0.80424 8.68811,2.4129 2.63832,1.54431 4.69699,3.69939 6.17697,6.46641 1.54443,2.70256 2.31731,5.76053 2.31731,9.17102 0,3.41046 -0.77288,6.4998 -2.31731,9.2668 -1.47998,2.76699 -3.53865,4.95308 -6.17697,6.56183 -2.57397,1.54447 -5.47062,2.31729 -8.68811,2.31729 -3.21741,0 -6.14527,-0.77282 -8.7835,-2.31729 -2.57401,-1.60875 -4.59888,-3.79484 -6.07887,-6.56183 -1.48005,-2.767 -2.22179,-5.85634 -2.22179,-9.2668 0,-3.41049 0.74174,-6.46846 2.22179,-9.17102 1.47999,-2.76702 3.50486,-4.9221 6.07887,-6.46641 2.63823,-1.60866 5.56609,-2.4129 8.7835,-2.4129 z"
       id="path419362-3-8-1-1-3"
       inkscape:connector-curvature="0"
       sodipodi:nodetypes="cccccccccccccccccsccsccsccsscccccscssccsccsccsccscssccsccsccscscssccssccsccsccsccssccsccsccsccssccsccsccsccs" />
  </g>
</svg>
