<?xml version="1.0" encoding="UTF-8" standalone="no"?>
<!-- Created with Inkscape (http://www.inkscape.org/) -->

<svg
   xmlns:dc="http://purl.org/dc/elements/1.1/"
   xmlns:cc="http://creativecommons.org/ns#"
   xmlns:rdf="http://www.w3.org/1999/02/22-rdf-syntax-ns#"
   xmlns:svg="http://www.w3.org/2000/svg"
   xmlns="http://www.w3.org/2000/svg"
   xmlns:xlink="http://www.w3.org/1999/xlink"
   xmlns:sodipodi="http://sodipodi.sourceforge.net/DTD/sodipodi-0.dtd"
   xmlns:inkscape="http://www.inkscape.org/namespaces/inkscape"
   width="199.47034mm"
   height="117.66914mm"
   viewBox="0 0 199.47034 117.66914"
   version="1.1"
   id="svg420450"
   inkscape:version="0.92.3 (2405546, 2018-03-11)"
   sodipodi:docname="logo.svg">
  <defs
     id="defs420444">
    <linearGradient
       gradientTransform="matrix(5.1438651,0,0,5.1438651,-426.7898,-1051.2921)"
       inkscape:collect="always"
       xlink:href="#linearGradient419386-6"
       id="linearGradient419388-5-3-2-5-3"
       x1="73.381638"
       y1="253.62039"
       x2="111.52764"
       y2="268.32022"
       gradientUnits="userSpaceOnUse" />
    <linearGradient
       inkscape:collect="always"
       id="linearGradient419386-6">
      <stop
         style="stop-color:#133156;stop-opacity:1"
         offset="0"
         id="stop419382-7" />
      <stop
         style="stop-color:#42b7d6;stop-opacity:1"
         offset="1"
         id="stop419384-5" />
    </linearGradient>
    <linearGradient
       gradientTransform="matrix(5.1365122,-0.27493684,0.27493684,5.1365122,-498.30758,-1024.8539)"
       inkscape:collect="always"
       xlink:href="#linearGradient419386-6"
       id="linearGradient419388-5-3-2-5-3-5"
       x1="73.381638"
       y1="253.62039"
       x2="111.52764"
       y2="268.32022"
       gradientUnits="userSpaceOnUse" />
  </defs>
  <sodipodi:namedview
     id="base"
     pagecolor="#ffffff"
     bordercolor="#666666"
     borderopacity="1.0"
     inkscape:pageopacity="0.0"
     inkscape:pageshadow="2"
     inkscape:zoom="0.24748737"
     inkscape:cx="-279.14852"
     inkscape:cy="1061.0469"
     inkscape:document-units="mm"
     inkscape:current-layer="layer1"
     showgrid="false"
     inkscape:window-width="1887"
     inkscape:window-height="2097"
     inkscape:window-x="67"
     inkscape:window-y="33"
     inkscape:window-maximized="0"
     inkscape:snap-global="false" />
  <metadata
     id="metadata420447">
    <rdf:RDF>
      <cc:Work
         rdf:about="">
        <dc:format>image/svg+xml</dc:format>
        <dc:type
           rdf:resource="http://purl.org/dc/dcmitype/StillImage" />
        <dc:title></dc:title>
      </cc:Work>
    </rdf:RDF>
  </metadata>
  <g
     inkscape:label="Layer 1"
     inkscape:groupmode="layer"
     id="layer1"
     transform="translate(49.478238,-221.33315)">
    <path
       style="font-style:normal;font-variant:normal;font-weight:bold;font-stretch:normal;font-size:medium;line-height:125%;font-family:Comfortaa;-inkscape-font-specification:'Comfortaa Bold';letter-spacing:0px;word-spacing:0px;opacity:0.36600001;fill:url(#linearGradient419388-5-3-2-5-3-5);fill-opacity:1;stroke:none;stroke-width:2.54935074px;stroke-linecap:butt;stroke-linejoin:miter;stroke-opacity:1"
       d="m 29.482643,221.33315 c -0.170301,0.004 -0.340289,0.0132 -0.509289,0.0322 -4.600729,0.50433 -6.247423,6.35325 -2.585663,9.18384 l 10.542258,8.41994 -9.640101,9.18066 c -5.355154,4.71192 2.117845,12.56308 7.088162,7.44683 l 13.922058,-13.22989 c 2.262141,-2.15006 2.104311,-5.80284 -0.334894,-7.74964 L 32.809341,222.50978 c -0.935726,-0.77123 -2.113895,-1.18708 -3.32642,-1.17421 z m -31.852917,14.42657 c -2.8461347,0.12638 -5.0489961,2.53889 -4.913298,5.38458 l 2.2486781,46.13934 c 0.016617,0.40918 0.07973,0.81516 0.1951119,1.20872 l 0.1216155,2.27214 c -2.5322148,-2.79192 -5.5394915,-4.91081 -9.0210245,-6.35833 -3.481453,-1.44757 -7.190526,-2.06688 -11.127858,-1.85613 -4.887762,0.26163 -9.270204,1.72156 -13.144672,4.37978 -3.806518,2.65472 -6.746544,6.21801 -8.822065,10.68627 -2.011345,4.39668 -2.875371,9.24219 -2.591947,14.53726 0.283425,5.29508 1.763116,10.04828 4.439573,14.2622 2.672778,4.14591 6.215066,7.35967 10.626319,9.64254 4.475447,2.21124 9.326453,3.17686 14.55365,2.89706 5.227201,-0.27978 9.8814358,-1.75418 13.9595409,-4.42326 4.1423115,-2.74069 7.3213289,-6.31423 9.536244,-10.72176 2.2792116,-4.47916 3.2760614,-9.36493 2.9926376,-14.66001 L 4.1967245,262.7146 c -0.023231,-0.43405 -0.091053,-0.83458 -0.1847236,-1.21725 l -0.7624229,-15.6861 21.579554,-0.96336 c 6.96396,-0.20275 6.494674,-10.6969 -0.45929,-10.27726 z m 98.637181,16.81993 c -1.493422,0.0799 -2.722806,0.62222 -3.690139,1.62707 -0.899569,1.00128 -1.307467,2.28152 -1.223893,3.84276 l 2.485502,46.43552 c 0.28343,5.29508 1.763235,10.04828 4.439587,14.26219 2.740676,4.14228 6.282946,7.35605 10.626356,9.64254 4.40756,2.21488 9.22294,3.1824 14.45004,2.90262 5.22729,-0.2798 9.91446,-1.75595 14.06042,-4.42867 4.21027,-2.74433 7.4222,-6.31964 9.63725,-10.72717 2.21135,-4.47553 3.17519,-9.35953 2.89177,-14.65461 -0.28342,-5.29507 -1.69283,-10.01889 -4.22985,-14.17211 -2.47279,-4.22481 -5.77633,-7.45391 -9.91239,-9.68349 -4.0682,-2.2331 -8.54575,-3.21878 -13.43357,-2.95715 -3.93736,0.21074 -7.56172,1.22258 -10.86879,3.03352 -3.30704,1.81087 -6.06839,4.23854 -8.28807,7.28481 l -1.47164,-27.49395 c -0.0835,-1.56125 -0.62589,-2.79061 -1.627,-3.69018 -1.001401,-0.89961 -2.284189,-1.30728 -3.845583,-1.2237 z M 48.76778,278.60868 c -5.227156,0.27978 -9.945515,1.79343 -14.155732,4.53775 -4.146004,2.67269 -7.324964,6.24626 -9.536242,10.72174 -2.21501,4.40759 -3.180606,9.25857 -2.897184,14.55359 0.283425,5.29512 1.661648,10.05645 4.134433,14.28115 2.53702,4.15328 5.838569,7.34412 9.90672,9.57733 4.136048,2.22942 8.649291,3.21311 13.537078,2.95148 3.93733,-0.21075 7.559235,-1.2196 10.866309,-3.03048 3.30711,-1.81106 6.070989,-4.23893 8.290759,-7.28514 l 0.201609,3.76654 c 0.0799,1.49343 0.62223,2.72282 1.62698,3.69027 1.069164,0.89582 2.34942,1.30371 3.842842,1.22378 1.493473,-0.0799 2.689889,-0.62046 3.589372,-1.6216 0.963815,-1.07282 1.407287,-2.35496 1.327347,-3.84839 l -1.215474,-22.70817 c -0.283428,-5.29502 -1.796997,-10.0133 -4.537664,-14.15564 -2.676481,-4.21386 -6.218741,-7.42767 -10.626306,-9.64251 -4.343362,-2.28649 -9.127681,-3.2915 -14.354847,-3.0117 z m -71.108263,12.99797 c 3.394246,-0.18168 6.495471,0.50318 9.301736,2.05493 2.870527,1.48018 5.1640396,3.63747 6.8816355,6.47299 1.7139487,2.76752 2.666431,5.95182 2.8590129,9.54975 0.1925826,3.59793 -0.412775,6.89878 -1.8178686,9.90144 -1.4051029,3.00264 -3.4534782,5.42513 -6.1459608,7.27128 -2.628214,1.77469 -5.640386,2.75356 -9.034632,2.93524 -3.394321,0.18168 -6.526779,-0.46828 -9.397287,-1.94866 -2.806276,-1.55181 -5.10146,-3.7418 -6.886965,-6.57368 -1.717641,-2.83551 -2.671872,-6.05289 -2.864455,-9.6508 -0.192583,-3.59793 0.414525,-6.86571 1.823311,-9.80039 1.473011,-3.00629 3.523059,-5.39608 6.151289,-7.17059 2.692458,-1.84607 5.735863,-2.85983 9.130184,-3.04151 z m 71.598852,-3.8324 c 3.394265,-0.18167 6.495545,0.50318 9.301797,2.05492 2.870478,1.48019 5.163979,3.63748 6.88157,6.473 1.717639,2.83547 2.671874,6.05273 2.864453,9.65058 0.192596,3.59807 -0.412767,6.89877 -1.817913,9.90143 -1.408735,2.93468 -3.45886,5.32432 -6.15129,7.17045 -2.628201,1.7747 -5.640433,2.75357 -9.034688,2.93524 -3.394306,0.18168 -6.526729,-0.46827 -9.397262,-1.94865 -2.806254,-1.55182 -5.099731,-3.70895 -6.881606,-6.47285 -1.717611,-2.83552 -2.674531,-6.05259 -2.867117,-9.65067 -0.192579,-3.59784 0.415459,-6.89873 1.820577,-9.90135 1.473018,-3.00629 3.52312,-5.39607 6.151326,-7.17059 2.692481,-1.84607 5.735858,-2.85982 9.130153,-3.04151 z m 71.561611,-3.8304 c 3.39433,-0.18168 6.4956,0.50317 9.30188,2.05491 2.87052,1.48019 5.16403,3.63748 6.8816,6.47299 1.78192,2.7639 2.76996,5.94629 2.96254,9.54422 0.19258,3.59792 -0.44833,6.90069 -1.9214,9.90697 -1.40506,3.00266 -3.45344,5.42515 -6.14592,7.27128 -2.62823,1.77471 -5.64045,2.75357 -9.03477,2.93525 -3.39425,0.18167 -6.52666,-0.46828 -9.3971,-1.94866 -2.80633,-1.55182 -5.06594,-3.74371 -6.78352,-6.57922 -1.71764,-2.83551 -2.67458,-6.05274 -2.86716,-9.65066 -0.19259,-3.59793 0.41723,-6.86586 1.82602,-9.80053 1.40509,-3.00266 3.41956,-5.39054 6.04784,-7.16505 2.69239,-1.84607 5.73575,-2.85982 9.12999,-3.0415 z"
       id="path419362-3-8-1-1-3-9"
       inkscape:connector-curvature="0"
       sodipodi:nodetypes="cccccccccccccccccsccsccsccsscccccscssccsccsccsccscssccsccsccscscssccssccsccsccsccssccsccsccsccssccsccsccsccs" />
    <path
       style="font-style:normal;font-variant:normal;font-weight:bold;font-stretch:normal;font-size:medium;line-height:125%;font-family:Comfortaa;-inkscape-font-specification:'Comfortaa Bold';letter-spacing:0px;word-spacing:0px;fill:url(#linearGradient419388-5-3-2-5-3);fill-opacity:1;stroke:none;stroke-width:2.54935074px;stroke-linecap:butt;stroke-linejoin:miter;stroke-opacity:1;opacity:0.774"
       d="m 33.637942,221.32359 c -0.170281,-0.005 -0.340513,-0.005 -0.510291,0.005 -4.621099,0.25769 -6.578061,6.01024 -3.072829,9.03251 l 10.077141,8.97138 -10.117016,8.65228 c -5.599348,4.41895 1.443326,12.65831 6.680001,7.81503 L 51.30424,243.33295 c 2.373826,-2.02608 2.411452,-5.68207 0.07985,-7.75647 L 36.897041,222.67637 c -0.893167,-0.82015 -2.04742,-1.29837 -3.2589,-1.35033 z M 1.0594678,234.02701 c -2.848822,-0.0259 -5.17748,2.2654 -5.194078,5.11427 l -0.22066,46.19359 c -0.0053,0.40948 0.03605,0.81825 0.130228,1.21741 v 2.2754 c -2.379368,-2.92327 -5.269092,-5.19988 -8.6682788,-6.83141 -3.399105,-1.63159 -7.069775,-2.44825 -11.012742,-2.44825 -4.89476,0 -9.34897,1.2236 -13.35998,3.67094 -3.94297,2.44746 -7.06925,5.84852 -9.38063,10.19946 -2.24347,4.28289 -3.36525,9.07527 -3.36525,14.37794 0,5.30266 1.22352,10.12815 3.67092,14.4791 2.44736,4.28284 5.81281,7.68134 10.09574,10.19673 4.35086,2.44729 9.14332,3.67081 14.378,3.67081 5.234684,0 9.961071,-1.22352 14.1760078,-3.67081 4.282879,-2.51539 7.64835499,-5.91389 10.095685,-10.19673 2.515362,-4.35095 3.771929,-9.17644 3.771929,-14.4791 v -46.50199 c 0,-0.43467 -0.04632,-0.83825 -0.119399,-1.2254 l 0.07708,-15.70441 21.6002002,0.19143 c 6.964844,0.16978 7.057136,-10.33447 0.09068,-10.28712 z m 97.5971662,22.068 c -1.49556,0 -2.752164,0.4758 -3.771828,1.4275 -0.951802,0.95178 -1.427538,2.20838 -1.427538,3.77186 v 46.50199 c 0,5.30266 1.223634,10.12815 3.670929,14.4791 2.515362,4.28284 5.880793,7.68134 10.095783,10.19673 4.28288,2.44729 9.03967,3.67081 14.27424,3.67081 5.23477,0 9.99415,-1.22352 14.27703,-3.67081 4.35094,-2.51539 7.74938,-5.91389 10.19684,-10.19673 2.4474,-4.35095 3.67092,-9.17644 3.67092,-14.4791 0,-5.30267 -1.15491,-10.09505 -3.46631,-14.37794 -2.24344,-4.35094 -5.36967,-7.752 -9.38065,-10.19946 -3.94302,-2.44734 -8.36149,-3.67094 -13.2563,-3.67094 -3.943,0 -7.61626,0.81666 -11.0154,2.44825 -3.3991,1.63153 -6.28626,3.90814 -8.66559,6.83141 v -27.53331 c 0,-1.56348 -0.47584,-2.82008 -1.42744,-3.77186 -0.95188,-0.95186 -2.21105,-1.4275 -3.774686,-1.4275 z m -48.822472,23.45301 c -5.234636,0 -10.027142,1.25929 -14.378027,3.77466 -4.282932,2.44726 -7.648356,5.8458 -10.095685,10.1967 -2.447428,4.2829 -3.670925,9.07534 -3.670925,14.37794 0,5.30269 1.121762,10.13089 3.365204,14.48171 2.311403,4.28296 5.437682,7.6457 9.380654,10.09316 4.010977,2.44729 8.465193,3.67081 13.359969,3.67081 3.942974,0 7.613626,-0.81383 11.012752,-2.44537 3.399189,-1.6317 6.288886,-3.90836 8.668303,-6.83158 v 3.77194 c 0,1.49557 0.475803,2.75217 1.427408,3.77194 1.019765,0.9517 2.276385,1.42743 3.771937,1.42743 1.495616,0 2.719213,-0.4758 3.670919,-1.42743 1.01977,-1.01977 1.531139,-2.27637 1.531139,-3.77194 v -22.74067 c 0,-5.3026 -1.259219,-10.09504 -3.774554,-14.37794 -2.44743,-4.3509 -5.812853,-7.74944 -10.095733,-10.1967 -4.214936,-2.51537 -8.938704,-3.77466 -14.173361,-3.77466 z m -71.701345,9.17869 c 3.399105,0 6.459291,0.84965 9.178605,2.54916 2.7873078,1.63151 4.9622358,3.90829 6.5258208,6.83157 1.563576,2.85518 2.344496,6.08584 2.344496,9.68892 0,3.60306 -0.78092,6.86685 -2.344496,9.79011 -1.563585,2.92325 -3.738513,5.23279 -6.5258208,6.93239 -2.719314,1.63169 -5.7795,2.44815 -9.178605,2.44815 -3.39918,0 -6.49242,-0.81646 -9.2797,-2.44815 -2.71932,-1.6996 -4.89417,-4.00914 -6.52576,-6.93239 -1.56363,-2.92326 -2.34453,-6.18705 -2.34453,-9.79011 0,-3.60308 0.7809,-6.83374 2.34453,-9.68892 1.63159,-2.92328 3.80644,-5.20006 6.52576,-6.83157 2.78728,-1.69951 5.88052,-2.54916 9.2797,-2.54916 z m 71.701345,0 c 3.399126,0 6.45936,0.84965 9.178663,2.54916 2.787256,1.63151 4.962181,3.90829 6.52576,6.83157 1.563629,2.92322 2.344534,6.18689 2.344534,9.78988 0,3.60323 -0.780905,6.86685 -2.344534,9.79012 -1.563579,2.85519 -3.738504,5.13182 -6.52576,6.83142 -2.719303,1.63169 -5.779537,2.44815 -9.178663,2.44815 -3.39916,0 -6.492364,-0.81646 -9.27967,-2.44815 -2.719295,-1.6996 -4.894199,-3.97623 -6.525795,-6.83142 -1.563605,-2.92327 -2.347198,-6.18689 -2.347198,-9.79012 0,-3.60299 0.783593,-6.86666 2.347198,-9.78988 1.631596,-2.92328 3.8065,-5.20006 6.525795,-6.83157 2.787306,-1.69951 5.88051,-2.54916 9.27967,-2.54916 z m 71.664058,0 c 3.39919,0 6.45942,0.84965 9.17874,2.54916 2.78731,1.63151 4.96224,3.90829 6.52579,6.83157 1.63165,2.85518 2.44818,6.08584 2.44818,9.68892 0,3.60306 -0.81653,6.86685 -2.44818,9.79011 -1.56355,2.92325 -3.73848,5.23279 -6.52579,6.93239 -2.71932,1.63169 -5.77955,2.44815 -9.17874,2.44815 -3.3991,0 -6.4923,-0.81646 -9.27951,-2.44815 -2.71937,-1.6996 -4.85859,-4.00914 -6.42216,-6.93239 -1.56363,-2.92326 -2.34725,-6.18705 -2.34725,-9.79011 0,-3.60308 0.78362,-6.83374 2.34725,-9.68892 1.56357,-2.92328 3.70279,-5.20006 6.42216,-6.83157 2.78721,-1.69951 5.88041,-2.54916 9.27951,-2.54916 z"
       id="path419362-3-8-1-1-3"
       inkscape:connector-curvature="0"
       sodipodi:nodetypes="cccccccccccccccccsccsccsccsscccccscssccsccsccsccscssccsccsccscscssccssccsccsccsccssccsccsccsccssccsccsccsccs" />
  </g>
</svg>
